<svg width="1336" height="130" viewBox="0 0 1336 130" fill="none" xmlns="http://www.w3.org/2000/svg">
<g filter="url(#filter0_d_1_190)">
<rect x="12" y="8" width="1312" height="106" rx="40" fill="url(#paint0_linear_1_190)" shape-rendering="crispEdges"/>
<path d="M64 51V77.6667M64 51H58.1071C57.2389 51 56.4062 50.6489 55.7922 50.0237C55.1782 49.3986 54.8333 48.5508 54.8333 47.6667C54.8333 46.7827 55.1782 45.9348 55.7922 45.3097C56.4062 44.6846 57.2389 44.3334 58.1071 44.3334C62.6905 44.3334 64 51 64 51ZM64 51H69.8929C70.7611 51 71.5938 50.6489 72.2078 50.0237C72.8217 49.3986 73.1667 48.5508 73.1667 47.6667C73.1667 46.7827 72.8217 45.9348 72.2078 45.3097C71.5938 44.6846 70.7611 44.3334 69.8929 44.3334C65.3095 44.3334 64 51 64 51ZM77.3333 59.3334V72.3334C77.3333 74.2002 77.3333 75.1336 76.97 75.8467C76.6504 76.4739 76.1405 76.9838 75.5133 77.3034C74.8003 77.6667 73.8668 77.6667 72 77.6667L56 77.6667C54.1332 77.6667 53.1997 77.6667 52.4867 77.3034C51.8595 76.9838 51.3496 76.4739 51.03 75.8467C50.6667 75.1336 50.6667 74.2002 50.6667 72.3334V59.3334M47.3333 53.6667L47.3333 56.6667C47.3333 57.6001 47.3333 58.0668 47.515 58.4234C47.6748 58.737 47.9297 58.9919 48.2433 59.1517C48.5999 59.3334 49.0666 59.3334 50 59.3334L78 59.3334C78.9334 59.3334 79.4001 59.3334 79.7566 59.1517C80.0703 58.9919 80.3252 58.737 80.485 58.4234C80.6667 58.0668 80.6667 57.6001 80.6667 56.6667V53.6667C80.6667 52.7333 80.6667 52.2666 80.485 51.9101C80.3252 51.5965 80.0703 51.3415 79.7566 51.1817C79.4001 51 78.9334 51 78 51L50 51C49.0666 51 48.5999 51 48.2433 51.1817C47.9297 51.3415 47.6748 51.5965 47.515 51.9101C47.3333 52.2666 47.3333 52.7333 47.3333 53.6667Z" stroke="#43A548" stroke-width="3" stroke-linecap="round" stroke-linejoin="round"/>
<path d="M105.5 52H115.66V66H113.8V53.76H107.36V66H105.5V52ZM126.924 64.74C125.911 65.7533 124.664 66.26 123.184 66.26C121.704 66.26 120.457 65.7533 119.444 64.74C118.431 63.7267 117.924 62.48 117.924 61C117.924 59.52 118.431 58.2733 119.444 57.26C120.457 56.2467 121.704 55.74 123.184 55.74C124.664 55.74 125.911 56.2467 126.924 57.26C127.951 58.2867 128.464 59.5333 128.464 61C128.464 62.4667 127.951 63.7133 126.924 64.74ZM123.184 64.56C124.184 64.56 125.024 64.22 125.704 63.54C126.384 62.86 126.724 62.0133 126.724 61C126.724 59.9867 126.384 59.14 125.704 58.46C125.024 57.78 124.184 57.44 123.184 57.44C122.197 57.44 121.364 57.78 120.684 58.46C120.004 59.14 119.664 59.9867 119.664 61C119.664 62.0133 120.004 62.86 120.684 63.54C121.364 64.22 122.197 64.56 123.184 64.56ZM138.725 56V64.34H140.105V68.68H138.385V66H130.885V68.68H129.165V64.34H130.385C131.025 63.46 131.345 62.2267 131.345 60.64V56H138.725ZM132.365 64.34H137.005V57.62H133.065V60.64C133.065 62.1067 132.831 63.34 132.365 64.34ZM145.5 60.84L150.44 66H148.28L143.72 61.26V66H141.98V56H143.72V60.42L148.04 56H150.28L145.5 60.84ZM152.978 56H160.398V66H158.658V57.68H154.718V61.76C154.718 63.36 154.398 64.5 153.758 65.18C153.118 65.8467 152.178 66.12 150.938 66V64.36C151.632 64.4533 152.145 64.3 152.478 63.9C152.812 63.4867 152.978 62.76 152.978 61.72V56ZM171.775 55.74C173.242 55.74 174.482 56.2467 175.495 57.26C176.522 58.2867 177.035 59.5333 177.035 61C177.035 62.4667 176.522 63.7133 175.495 64.74C174.482 65.7533 173.242 66.26 171.775 66.26C170.455 66.26 169.315 65.84 168.355 65C167.382 64.16 166.808 63.1 166.635 61.82H164.775V66H163.035V56H164.775V60.16H166.635C166.822 58.88 167.395 57.8267 168.355 57C169.342 56.16 170.482 55.74 171.775 55.74ZM171.775 64.56C172.762 64.56 173.595 64.22 174.275 63.54C174.955 62.86 175.295 62.0133 175.295 61C175.295 59.9867 174.955 59.14 174.275 58.46C173.595 57.78 172.762 57.44 171.775 57.44C170.775 57.44 169.935 57.78 169.255 58.46C168.575 59.14 168.235 59.9867 168.235 61C168.235 62.0133 168.575 62.86 169.255 63.54C169.935 64.22 170.775 64.56 171.775 64.56ZM185.194 60.78V56H186.934V66H185.194V62.4C184.381 62.7467 183.481 62.92 182.494 62.92C181.201 62.92 180.208 62.6133 179.514 62C178.821 61.3867 178.474 60.4933 178.474 59.32V56H180.214V59.22C180.214 59.9533 180.408 60.4867 180.794 60.82C181.194 61.14 181.801 61.3 182.614 61.3C183.534 61.3 184.394 61.1267 185.194 60.78ZM191.298 63.02L196.838 56H198.238V66H196.518V58.98L190.978 66H189.578V56H191.298V63.02ZM206.806 56H214.226V66H212.486V57.68H208.546V61.76C208.546 63.36 208.226 64.5 207.586 65.18C206.946 65.8467 206.006 66.12 204.766 66V64.36C205.46 64.4533 205.973 64.3 206.306 63.9C206.64 63.4867 206.806 62.76 206.806 61.72V56ZM225.603 55.74C227.07 55.74 228.31 56.2467 229.323 57.26C230.35 58.2867 230.863 59.5333 230.863 61C230.863 62.4667 230.35 63.7133 229.323 64.74C228.31 65.7533 227.07 66.26 225.603 66.26C224.283 66.26 223.143 65.84 222.183 65C221.21 64.16 220.636 63.1 220.463 61.82H218.603V66H216.863V56H218.603V60.16H220.463C220.65 58.88 221.223 57.8267 222.183 57C223.17 56.16 224.31 55.74 225.603 55.74ZM225.603 64.56C226.59 64.56 227.423 64.22 228.103 63.54C228.783 62.86 229.123 62.0133 229.123 61C229.123 59.9867 228.783 59.14 228.103 58.46C227.423 57.78 226.59 57.44 225.603 57.44C224.603 57.44 223.763 57.78 223.083 58.46C222.403 59.14 222.063 59.9867 222.063 61C222.063 62.0133 222.403 62.86 223.083 63.54C223.763 64.22 224.603 64.56 225.603 64.56ZM237.477 66.26C235.997 66.26 234.777 65.7733 233.817 64.8C232.857 63.8133 232.377 62.56 232.377 61.04C232.377 59.32 232.624 58.0067 233.117 57.1C233.624 56.18 234.651 55.3467 236.197 54.6C236.277 54.56 236.371 54.5133 236.477 54.46C236.597 54.4067 236.737 54.3467 236.897 54.28C237.071 54.2 237.217 54.1333 237.337 54.08L238.417 53.6C239.484 53.0667 240.051 52.4267 240.117 51.68L241.517 52.48C241.424 52.9467 241.271 53.32 241.057 53.6C241.044 53.6267 241.004 53.6867 240.937 53.78C240.871 53.86 240.824 53.92 240.797 53.96C240.771 53.9867 240.724 54.0333 240.657 54.1C240.604 54.1533 240.544 54.2067 240.477 54.26C240.424 54.3133 240.351 54.3667 240.257 54.42C239.764 54.7267 239.411 54.9267 239.197 55.02C239.117 55.06 239.031 55.1 238.937 55.14C238.857 55.18 238.791 55.2133 238.737 55.24C238.684 55.2667 238.644 55.2867 238.617 55.3L237.957 55.58L237.317 55.84C236.424 56.2267 235.764 56.62 235.337 57.02C234.911 57.42 234.604 57.9267 234.417 58.54C234.831 58.0333 235.351 57.6467 235.977 57.38C236.617 57.1133 237.271 56.98 237.937 56.98C239.204 56.98 240.264 57.4067 241.117 58.26C241.997 59.1267 242.437 60.2267 242.437 61.56C242.437 62.92 241.971 64.0467 241.037 64.94C240.091 65.82 238.904 66.26 237.477 66.26ZM240.697 61.56C240.697 60.6667 240.404 59.94 239.817 59.38C239.244 58.8067 238.484 58.52 237.537 58.52C236.697 58.52 235.924 58.7933 235.217 59.34C234.537 59.8867 234.197 60.5933 234.197 61.46C234.197 62.3667 234.511 63.1133 235.137 63.7C235.764 64.2867 236.544 64.58 237.477 64.58C238.424 64.58 239.191 64.2933 239.777 63.72C240.391 63.1467 240.697 62.4267 240.697 61.56ZM252.725 64.74C251.712 65.7533 250.465 66.26 248.985 66.26C247.505 66.26 246.258 65.7533 245.245 64.74C244.232 63.7267 243.725 62.48 243.725 61C243.725 59.52 244.232 58.2733 245.245 57.26C246.258 56.2467 247.505 55.74 248.985 55.74C250.465 55.74 251.712 56.2467 252.725 57.26C253.752 58.2867 254.265 59.5333 254.265 61C254.265 62.4667 253.752 63.7133 252.725 64.74ZM248.985 64.56C249.985 64.56 250.825 64.22 251.505 63.54C252.185 62.86 252.525 62.0133 252.525 61C252.525 59.9867 252.185 59.14 251.505 58.46C250.825 57.78 249.985 57.44 248.985 57.44C247.998 57.44 247.165 57.78 246.485 58.46C245.805 59.14 245.465 59.9867 245.465 61C245.465 62.0133 245.805 62.86 246.485 63.54C247.165 64.22 247.998 64.56 248.985 64.56ZM263.356 54.5H257.956V52.98H263.356V54.5ZM258.036 63.02L263.576 56H264.976V66H263.256V58.98L257.716 66H256.316V56H258.036V63.02ZM272.625 56H281.285V66H279.545V57.66H274.365V66H272.625V56ZM289.453 55.74C290.853 55.74 292.047 56.2533 293.033 57.28C294.02 58.3067 294.513 59.5467 294.513 61C294.513 62.4667 294.02 63.7133 293.033 64.74C292.06 65.7533 290.867 66.26 289.453 66.26C287.8 66.26 286.54 65.6 285.673 64.28V70H283.933V56H285.673V57.72C286.54 56.4 287.8 55.74 289.453 55.74ZM289.233 64.58C290.233 64.58 291.073 64.24 291.753 63.56C292.433 62.8533 292.773 62 292.773 61C292.773 59.9867 292.433 59.14 291.753 58.46C291.073 57.7667 290.233 57.42 289.233 57.42C288.22 57.42 287.373 57.7667 286.693 58.46C286.013 59.14 285.673 59.9867 285.673 61C285.673 62 286.013 62.8533 286.693 63.56C287.373 64.24 288.22 64.58 289.233 64.58ZM305.03 64.74C304.016 65.7533 302.77 66.26 301.29 66.26C299.81 66.26 298.563 65.7533 297.55 64.74C296.536 63.7267 296.03 62.48 296.03 61C296.03 59.52 296.536 58.2733 297.55 57.26C298.563 56.2467 299.81 55.74 301.29 55.74C302.77 55.74 304.016 56.2467 305.03 57.26C306.056 58.2867 306.57 59.5333 306.57 61C306.57 62.4667 306.056 63.7133 305.03 64.74ZM301.29 64.56C302.29 64.56 303.13 64.22 303.81 63.54C304.49 62.86 304.83 62.0133 304.83 61C304.83 59.9867 304.49 59.14 303.81 58.46C303.13 57.78 302.29 57.44 301.29 57.44C300.303 57.44 299.47 57.78 298.79 58.46C298.11 59.14 297.77 59.9867 297.77 61C297.77 62.0133 298.11 62.86 298.79 63.54C299.47 64.22 300.303 64.56 301.29 64.56ZM316.83 56V64.34H318.21V68.68H316.49V66H308.99V68.68H307.27V64.34H308.49C309.13 63.46 309.45 62.2267 309.45 60.64V56H316.83ZM310.47 64.34H315.11V57.62H311.17V60.64C311.17 62.1067 310.937 63.34 310.47 64.34ZM323.795 63.84L326.675 56H328.535L324.455 66.62C324.028 67.7533 323.428 68.6133 322.655 69.2C321.882 69.8 321.002 70.0667 320.015 70V68.38C321.228 68.4733 322.128 67.8067 322.715 66.38L322.875 66.02L318.535 56H320.375L323.795 63.84ZM333.508 60.84L338.448 66H336.288L331.728 61.26V66H329.988V56H331.728V60.42L336.048 56H338.288L333.508 60.84ZM338.946 56H347.506V57.68H344.106V66H342.366V57.68H338.946V56ZM360.951 60.16V56H362.691V66H360.951V61.82H355.771V66H354.031V56H355.771V60.16H360.951ZM373.62 57.72V56H375.36V66H373.62V64.28C372.766 65.6 371.506 66.26 369.84 66.26C368.426 66.26 367.233 65.7533 366.26 64.74C365.273 63.7133 364.78 62.4667 364.78 61C364.78 59.5467 365.273 58.3067 366.26 57.28C367.246 56.2533 368.44 55.74 369.84 55.74C371.506 55.74 372.766 56.4 373.62 57.72ZM370.06 64.58C371.073 64.58 371.92 64.24 372.6 63.56C373.28 62.8533 373.62 62 373.62 61C373.62 59.9867 373.28 59.14 372.6 58.46C371.92 57.7667 371.073 57.42 370.06 57.42C369.06 57.42 368.22 57.7667 367.54 58.46C366.86 59.14 366.52 59.9867 366.52 61C366.52 62 366.86 62.8533 367.54 63.56C368.22 64.24 369.06 64.58 370.06 64.58ZM381.956 53.28L385.636 52H387.236V66H385.396V54L382.416 54.88L381.956 53.28ZM403.265 56H405.125V66H403.425V58.74L400.245 63.86H400.025L396.845 58.74V66H395.125V56H396.985L400.125 61.06L403.265 56ZM417.381 61.8H409.001C409.174 62.68 409.581 63.3733 410.221 63.88C410.861 64.3733 411.661 64.62 412.621 64.62C413.941 64.62 414.901 64.1333 415.501 63.16L416.981 64C415.994 65.5067 414.528 66.26 412.581 66.26C411.008 66.26 409.714 65.7667 408.701 64.78C407.714 63.7667 407.221 62.5067 407.221 61C407.221 59.48 407.708 58.2267 408.681 57.24C409.654 56.24 410.914 55.74 412.461 55.74C413.928 55.74 415.121 56.26 416.041 57.3C416.974 58.3133 417.441 59.5533 417.441 61.02C417.441 61.2733 417.421 61.5333 417.381 61.8ZM412.461 57.38C411.541 57.38 410.768 57.64 410.141 58.16C409.528 58.68 409.148 59.3867 409.001 60.28H415.681C415.534 59.36 415.168 58.6467 414.581 58.14C413.994 57.6333 413.288 57.38 412.461 57.38ZM424.122 66.26C422.615 66.26 421.362 65.76 420.362 64.76C419.362 63.7467 418.862 62.4933 418.862 61C418.862 59.5067 419.362 58.26 420.362 57.26C421.362 56.2467 422.615 55.74 424.122 55.74C425.108 55.74 425.995 55.98 426.782 56.46C427.568 56.9267 428.155 57.56 428.542 58.36L427.082 59.2C426.828 58.6667 426.435 58.24 425.902 57.92C425.382 57.6 424.788 57.44 424.122 57.44C423.122 57.44 422.282 57.78 421.602 58.46C420.935 59.1533 420.602 60 420.602 61C420.602 61.9867 420.935 62.8267 421.602 63.52C422.282 64.2 423.122 64.54 424.122 64.54C424.788 64.54 425.388 64.3867 425.922 64.08C426.455 63.76 426.862 63.3333 427.142 62.8L428.622 63.66C428.182 64.46 427.562 65.0933 426.762 65.56C425.962 66.0267 425.082 66.26 424.122 66.26ZM433.364 56H437.624V66H435.904V62.4H434.444L431.644 66H429.524L432.444 62.3C431.684 62.1133 431.071 61.74 430.604 61.18C430.151 60.62 429.924 59.9667 429.924 59.22C429.924 58.3 430.251 57.5333 430.904 56.92C431.558 56.3067 432.378 56 433.364 56ZM433.424 60.84H435.904V57.62H433.424C432.918 57.62 432.491 57.7733 432.144 58.08C431.811 58.3733 431.644 58.76 431.644 59.24C431.644 59.7067 431.811 60.0933 432.144 60.4C432.491 60.6933 432.918 60.84 433.424 60.84ZM448.661 56V64.34H450.301V68.68H448.581V66H440.261V56H442.001V64.34H446.921V56H448.661ZM461.696 66.26C460.216 66.26 458.996 65.7733 458.036 64.8C457.076 63.8133 456.596 62.56 456.596 61.04C456.596 59.32 456.843 58.0067 457.336 57.1C457.843 56.18 458.869 55.3467 460.416 54.6C460.496 54.56 460.589 54.5133 460.696 54.46C460.816 54.4067 460.956 54.3467 461.116 54.28C461.289 54.2 461.436 54.1333 461.556 54.08L462.636 53.6C463.703 53.0667 464.269 52.4267 464.336 51.68L465.736 52.48C465.643 52.9467 465.489 53.32 465.276 53.6C465.263 53.6267 465.223 53.6867 465.156 53.78C465.089 53.86 465.043 53.92 465.016 53.96C464.989 53.9867 464.943 54.0333 464.876 54.1C464.823 54.1533 464.763 54.2067 464.696 54.26C464.643 54.3133 464.569 54.3667 464.476 54.42C463.983 54.7267 463.629 54.9267 463.416 55.02C463.336 55.06 463.249 55.1 463.156 55.14C463.076 55.18 463.009 55.2133 462.956 55.24C462.903 55.2667 462.863 55.2867 462.836 55.3L462.176 55.58L461.536 55.84C460.643 56.2267 459.983 56.62 459.556 57.02C459.129 57.42 458.823 57.9267 458.636 58.54C459.049 58.0333 459.569 57.6467 460.196 57.38C460.836 57.1133 461.489 56.98 462.156 56.98C463.423 56.98 464.483 57.4067 465.336 58.26C466.216 59.1267 466.656 60.2267 466.656 61.56C466.656 62.92 466.189 64.0467 465.256 64.94C464.309 65.82 463.123 66.26 461.696 66.26ZM464.916 61.56C464.916 60.6667 464.623 59.94 464.036 59.38C463.463 58.8067 462.703 58.52 461.756 58.52C460.916 58.52 460.143 58.7933 459.436 59.34C458.756 59.8867 458.416 60.5933 458.416 61.46C458.416 62.3667 458.729 63.1133 459.356 63.7C459.983 64.2867 460.763 64.58 461.696 64.58C462.643 64.58 463.409 64.2933 463.996 63.72C464.609 63.1467 464.916 62.4267 464.916 61.56ZM478.104 61.8H469.724C469.897 62.68 470.304 63.3733 470.944 63.88C471.584 64.3733 472.384 64.62 473.344 64.62C474.664 64.62 475.624 64.1333 476.224 63.16L477.704 64C476.717 65.5067 475.25 66.26 473.304 66.26C471.73 66.26 470.437 65.7667 469.424 64.78C468.437 63.7667 467.944 62.5067 467.944 61C467.944 59.48 468.43 58.2267 469.404 57.24C470.377 56.24 471.637 55.74 473.184 55.74C474.65 55.74 475.844 56.26 476.764 57.3C477.697 58.3133 478.164 59.5533 478.164 61.02C478.164 61.2733 478.144 61.5333 478.104 61.8ZM473.184 57.38C472.264 57.38 471.49 57.64 470.864 58.16C470.25 58.68 469.87 59.3867 469.724 60.28H476.404C476.257 59.36 475.89 58.6467 475.304 58.14C474.717 57.6333 474.01 57.38 473.184 57.38ZM484.844 66.26C483.338 66.26 482.084 65.76 481.084 64.76C480.084 63.7467 479.584 62.4933 479.584 61C479.584 59.5067 480.084 58.26 481.084 57.26C482.084 56.2467 483.338 55.74 484.844 55.74C485.831 55.74 486.718 55.98 487.504 56.46C488.291 56.9267 488.878 57.56 489.264 58.36L487.804 59.2C487.551 58.6667 487.158 58.24 486.624 57.92C486.104 57.6 485.511 57.44 484.844 57.44C483.844 57.44 483.004 57.78 482.324 58.46C481.658 59.1533 481.324 60 481.324 61C481.324 61.9867 481.658 62.8267 482.324 63.52C483.004 64.2 483.844 64.54 484.844 64.54C485.511 64.54 486.111 64.3867 486.644 64.08C487.178 63.76 487.584 63.3333 487.864 62.8L489.344 63.66C488.904 64.46 488.284 65.0933 487.484 65.56C486.684 66.0267 485.804 66.26 484.844 66.26ZM491.082 56H499.742V66H498.002V57.66H492.822V66H491.082V56ZM503.31 56H510.73V66H508.99V57.68H505.05V61.76C505.05 63.36 504.73 64.5 504.09 65.18C503.45 65.8467 502.51 66.12 501.27 66V64.36C501.964 64.4533 502.477 64.3 502.81 63.9C503.144 63.4867 503.31 62.76 503.31 61.72V56ZM521.647 57.72V56H523.387V66H521.647V64.28C520.794 65.6 519.534 66.26 517.867 66.26C516.454 66.26 515.26 65.7533 514.287 64.74C513.3 63.7133 512.807 62.4667 512.807 61C512.807 59.5467 513.3 58.3067 514.287 57.28C515.274 56.2533 516.467 55.74 517.867 55.74C519.534 55.74 520.794 56.4 521.647 57.72ZM518.087 64.58C519.1 64.58 519.947 64.24 520.627 63.56C521.307 62.8533 521.647 62 521.647 61C521.647 59.9867 521.307 59.14 520.627 58.46C519.947 57.7667 519.1 57.42 518.087 57.42C517.087 57.42 516.247 57.7667 515.567 58.46C514.887 59.14 514.547 59.9867 514.547 61C514.547 62 514.887 62.8533 515.567 63.56C516.247 64.24 517.087 64.58 518.087 64.58ZM524.903 56H533.463V57.68H530.063V66H528.323V57.68H524.903V56ZM541.908 60.16V56H543.648V66H541.908V61.82H536.728V66H534.988V56H536.728V60.16H541.908ZM554.737 64.74C553.723 65.7533 552.477 66.26 550.997 66.26C549.517 66.26 548.27 65.7533 547.257 64.74C546.243 63.7267 545.737 62.48 545.737 61C545.737 59.52 546.243 58.2733 547.257 57.26C548.27 56.2467 549.517 55.74 550.997 55.74C552.477 55.74 553.723 56.2467 554.737 57.26C555.763 58.2867 556.277 59.5333 556.277 61C556.277 62.4667 555.763 63.7133 554.737 64.74ZM550.997 64.56C551.997 64.56 552.837 64.22 553.517 63.54C554.197 62.86 554.537 62.0133 554.537 61C554.537 59.9867 554.197 59.14 553.517 58.46C552.837 57.78 551.997 57.44 550.997 57.44C550.01 57.44 549.177 57.78 548.497 58.46C547.817 59.14 547.477 59.9867 547.477 61C547.477 62.0133 547.817 62.86 548.497 63.54C549.177 64.22 550.01 64.56 550.997 64.56ZM565.048 63.02L570.588 56H571.988V66H570.268V58.98L564.728 66H563.328V56H565.048V63.02ZM588.076 64.74C587.063 65.7533 585.816 66.26 584.336 66.26C582.856 66.26 581.61 65.7533 580.596 64.74C579.583 63.7267 579.076 62.48 579.076 61C579.076 59.52 579.583 58.2733 580.596 57.26C581.61 56.2467 582.856 55.74 584.336 55.74C585.816 55.74 587.063 56.2467 588.076 57.26C589.103 58.2867 589.616 59.5333 589.616 61C589.616 62.4667 589.103 63.7133 588.076 64.74ZM584.336 64.56C585.336 64.56 586.176 64.22 586.856 63.54C587.536 62.86 587.876 62.0133 587.876 61C587.876 59.9867 587.536 59.14 586.856 58.46C586.176 57.78 585.336 57.44 584.336 57.44C583.35 57.44 582.516 57.78 581.836 58.46C581.156 59.14 580.816 59.9867 580.816 61C580.816 62.0133 581.156 62.86 581.836 63.54C582.516 64.22 583.35 64.56 584.336 64.56ZM600.068 56V64.34H601.708V68.68H599.988V66H591.668V56H593.408V64.34H598.328V56H600.068ZM612.772 61.8H604.392C604.565 62.68 604.972 63.3733 605.612 63.88C606.252 64.3733 607.052 64.62 608.012 64.62C609.332 64.62 610.292 64.1333 610.892 63.16L612.372 64C611.385 65.5067 609.918 66.26 607.972 66.26C606.398 66.26 605.105 65.7667 604.092 64.78C603.105 63.7667 602.612 62.5067 602.612 61C602.612 59.48 603.098 58.2267 604.072 57.24C605.045 56.24 606.305 55.74 607.852 55.74C609.318 55.74 610.512 56.26 611.432 57.3C612.365 58.3133 612.832 59.5533 612.832 61.02C612.832 61.2733 612.812 61.5333 612.772 61.8ZM607.852 57.38C606.932 57.38 606.158 57.64 605.532 58.16C604.918 58.68 604.538 59.3867 604.392 60.28H611.072C610.925 59.36 610.558 58.6467 609.972 58.14C609.385 57.6333 608.678 57.38 607.852 57.38ZM621.752 60.16V56H623.492V66H621.752V61.82H616.572V66H614.832V56H616.572V60.16H621.752ZM627.86 63.02L633.4 56H634.8V66H633.08V58.98L627.54 66H626.14V56H627.86V63.02ZM649.369 60.16V56H651.109V66H649.369V61.82H644.189V66H642.449V56H644.189V60.16H649.369ZM662.038 57.72V56H663.778V66H662.038V64.28C661.184 65.6 659.924 66.26 658.258 66.26C656.844 66.26 655.651 65.7533 654.678 64.74C653.691 63.7133 653.198 62.4667 653.198 61C653.198 59.5467 653.691 58.3067 654.678 57.28C655.664 56.2533 656.858 55.74 658.258 55.74C659.924 55.74 661.184 56.4 662.038 57.72ZM658.478 64.58C659.491 64.58 660.338 64.24 661.018 63.56C661.698 62.8533 662.038 62 662.038 61C662.038 59.9867 661.698 59.14 661.018 58.46C660.338 57.7667 659.491 57.42 658.478 57.42C657.478 57.42 656.638 57.7667 655.958 58.46C655.278 59.14 654.938 59.9867 654.938 61C654.938 62 655.278 62.8533 655.958 63.56C656.638 64.24 657.478 64.58 658.478 64.58ZM678.374 64.34V56H680.114V66H666.414V56H668.154V64.34H672.394V56H674.134V64.34H678.374ZM684.501 63.02L690.041 56H691.441V66H689.721V58.98L684.181 66H682.781V56H684.501V63.02ZM699.09 56H707.75V66H706.01V57.66H700.83V66H699.09V56ZM715.918 55.74C717.318 55.74 718.511 56.2533 719.498 57.28C720.485 58.3067 720.978 59.5467 720.978 61C720.978 62.4667 720.485 63.7133 719.498 64.74C718.525 65.7533 717.331 66.26 715.918 66.26C714.265 66.26 713.005 65.6 712.138 64.28V70H710.398V56H712.138V57.72C713.005 56.4 714.265 55.74 715.918 55.74ZM715.698 64.58C716.698 64.58 717.538 64.24 718.218 63.56C718.898 62.8533 719.238 62 719.238 61C719.238 59.9867 718.898 59.14 718.218 58.46C717.538 57.7667 716.698 57.42 715.698 57.42C714.685 57.42 713.838 57.7667 713.158 58.46C712.478 59.14 712.138 59.9867 712.138 61C712.138 62 712.478 62.8533 713.158 63.56C713.838 64.24 714.685 64.58 715.698 64.58ZM724.774 63.02L730.314 56H731.714V66H729.994V58.98L724.454 66H723.054V56H724.774V63.02ZM743.963 61.8H735.583C735.756 62.68 736.163 63.3733 736.803 63.88C737.443 64.3733 738.243 64.62 739.203 64.62C740.523 64.62 741.483 64.1333 742.083 63.16L743.563 64C742.576 65.5067 741.11 66.26 739.163 66.26C737.59 66.26 736.296 65.7667 735.283 64.78C734.296 63.7667 733.803 62.5067 733.803 61C733.803 59.48 734.29 58.2267 735.263 57.24C736.236 56.24 737.496 55.74 739.043 55.74C740.51 55.74 741.703 56.26 742.623 57.3C743.556 58.3133 744.023 59.5533 744.023 61.02C744.023 61.2733 744.003 61.5333 743.963 61.8ZM739.043 57.38C738.123 57.38 737.35 57.64 736.723 58.16C736.11 58.68 735.73 59.3867 735.583 60.28H742.263C742.116 59.36 741.75 58.6467 741.163 58.14C740.576 57.6333 739.87 57.38 739.043 57.38ZM754.163 56H756.023V66H754.323V58.74L751.143 63.86H750.923L747.743 58.74V66H746.023V56H747.883L751.023 61.06L754.163 56ZM762.779 63.84L765.659 56H767.519L763.439 66.62C763.013 67.7533 762.413 68.6133 761.639 69.2C760.866 69.8 759.986 70.0667 758.999 70V68.38C760.213 68.4733 761.113 67.8067 761.699 66.38L761.859 66.02L757.519 56H759.359L762.779 63.84ZM782.572 56V64.34H783.952V68.68H782.232V66H768.972V56H770.712V64.34H774.912V56H776.652V64.34H780.832V56H782.572ZM795.037 61.8H786.657C786.831 62.68 787.237 63.3733 787.877 63.88C788.517 64.3733 789.317 64.62 790.277 64.62C791.597 64.62 792.557 64.1333 793.157 63.16L794.637 64C793.651 65.5067 792.184 66.26 790.237 66.26C788.664 66.26 787.371 65.7667 786.357 64.78C785.371 63.7667 784.877 62.5067 784.877 61C784.877 59.48 785.364 58.2267 786.337 57.24C787.311 56.24 788.571 55.74 790.117 55.74C791.584 55.74 792.777 56.26 793.697 57.3C794.631 58.3133 795.097 59.5533 795.097 61.02C795.097 61.2733 795.077 61.5333 795.037 61.8ZM790.117 57.38C789.197 57.38 788.424 57.64 787.797 58.16C787.184 58.68 786.804 59.3867 786.657 60.28H793.337C793.191 59.36 792.824 58.6467 792.237 58.14C791.651 57.6333 790.944 57.38 790.117 57.38ZM801.778 66.26C800.271 66.26 799.018 65.76 798.018 64.76C797.018 63.7467 796.518 62.4933 796.518 61C796.518 59.5067 797.018 58.26 798.018 57.26C799.018 56.2467 800.271 55.74 801.778 55.74C802.764 55.74 803.651 55.98 804.438 56.46C805.224 56.9267 805.811 57.56 806.198 58.36L804.738 59.2C804.484 58.6667 804.091 58.24 803.558 57.92C803.038 57.6 802.444 57.44 801.778 57.44C800.778 57.44 799.938 57.78 799.258 58.46C798.591 59.1533 798.258 60 798.258 61C798.258 61.9867 798.591 62.8267 799.258 63.52C799.938 64.2 800.778 64.54 801.778 64.54C802.444 64.54 803.044 64.3867 803.578 64.08C804.111 63.76 804.518 63.3333 804.798 62.8L806.278 63.66C805.838 64.46 805.218 65.0933 804.418 65.56C803.618 66.0267 802.738 66.26 801.778 66.26ZM806.72 56H815.28V57.68H811.88V66H810.14V57.68H806.72V56ZM823.464 60.86C824.491 61.2867 825.004 62.06 825.004 63.18C825.004 64.0333 824.724 64.72 824.164 65.24C823.604 65.7467 822.818 66 821.804 66H816.804V56H821.404C822.391 56 823.158 56.2467 823.704 56.74C824.264 57.2333 824.544 57.8933 824.544 58.72C824.544 59.68 824.184 60.3933 823.464 60.86ZM821.324 57.56H818.504V60.18H821.324C822.338 60.18 822.844 59.7333 822.844 58.84C822.844 57.9867 822.338 57.56 821.324 57.56ZM818.504 64.42H821.704C822.211 64.42 822.598 64.3 822.864 64.06C823.144 63.82 823.284 63.48 823.284 63.04C823.284 62.6267 823.144 62.3067 822.864 62.08C822.598 61.84 822.211 61.72 821.704 61.72H818.504V64.42ZM835.163 57.72V56H836.903V66H835.163V64.28C834.309 65.6 833.049 66.26 831.383 66.26C829.969 66.26 828.776 65.7533 827.803 64.74C826.816 63.7133 826.323 62.4667 826.323 61C826.323 59.5467 826.816 58.3067 827.803 57.28C828.789 56.2533 829.983 55.74 831.383 55.74C833.049 55.74 834.309 56.4 835.163 57.72ZM831.603 64.58C832.616 64.58 833.463 64.24 834.143 63.56C834.823 62.8533 835.163 62 835.163 61C835.163 59.9867 834.823 59.14 834.143 58.46C833.463 57.7667 832.616 57.42 831.603 57.42C830.603 57.42 829.763 57.7667 829.083 58.46C828.403 59.14 828.062 59.9867 828.062 61C828.062 62 828.403 62.8533 829.083 63.56C829.763 64.24 830.603 64.58 831.603 64.58Z" fill="#43A548"/>
<rect x="1081" y="40" width="211" height="42" rx="21" fill="url(#paint1_linear_1_190)"/>
<path d="M1112.12 53.8H1120.36V65H1118.52V55.56H1113.96V65H1112.12V53.8ZM1129.26 63.992C1128.45 64.8027 1127.45 65.208 1126.27 65.208C1125.08 65.208 1124.09 64.8027 1123.28 63.992C1122.46 63.1707 1122.04 62.1733 1122.04 61C1122.04 59.8267 1122.46 58.8293 1123.28 58.008C1124.09 57.1973 1125.08 56.792 1126.27 56.792C1127.45 56.792 1128.45 57.1973 1129.26 58.008C1130.08 58.8293 1130.49 59.8267 1130.49 61C1130.49 62.1733 1130.08 63.1707 1129.26 63.992ZM1123.77 61C1123.77 61.7253 1124.01 62.328 1124.49 62.808C1124.97 63.288 1125.56 63.528 1126.27 63.528C1126.97 63.528 1127.56 63.288 1128.04 62.808C1128.52 62.328 1128.76 61.7253 1128.76 61C1128.76 60.2747 1128.52 59.672 1128.04 59.192C1127.56 58.712 1126.97 58.472 1126.27 58.472C1125.56 58.472 1124.97 58.712 1124.49 59.192C1124.01 59.672 1123.77 60.2747 1123.77 61ZM1138.78 57V63.368H1139.85V67.144H1138.16V65H1132.67V67.144H1130.97V63.368H1131.95C1132.44 62.6853 1132.69 61.72 1132.69 60.472V57H1138.78ZM1133.85 63.368H1137.09V58.584H1134.38V60.472C1134.38 61.624 1134.21 62.5893 1133.85 63.368ZM1144.68 60.92L1148.33 65H1146.27L1142.99 61.304V65H1141.26V57H1142.99V60.536L1146.09 57H1148.2L1144.68 60.92ZM1150.12 57H1156.24V65H1154.52V58.664H1151.84V61.64C1151.84 62.888 1151.57 63.784 1151.03 64.328C1150.48 64.872 1149.69 65.096 1148.64 65V63.384C1149.14 63.4693 1149.5 63.368 1149.75 63.08C1149.99 62.7813 1150.12 62.2747 1150.12 61.56V57ZM1165.39 56.792C1166.58 56.792 1167.58 57.1973 1168.39 58.008C1169.21 58.8293 1169.62 59.8267 1169.62 61C1169.62 62.1733 1169.21 63.1707 1168.39 63.992C1167.58 64.8027 1166.58 65.208 1165.39 65.208C1164.36 65.208 1163.46 64.8933 1162.71 64.264C1161.95 63.624 1161.48 62.808 1161.31 61.816H1159.99V65H1158.26V57H1159.99V60.184H1161.31C1161.5 59.1813 1161.96 58.3707 1162.71 57.752C1163.46 57.112 1164.36 56.792 1165.39 56.792ZM1162.9 61C1162.9 61.7253 1163.14 62.328 1163.62 62.808C1164.1 63.288 1164.69 63.528 1165.39 63.528C1166.1 63.528 1166.69 63.288 1167.17 62.808C1167.65 62.328 1167.89 61.7253 1167.89 61C1167.89 60.2747 1167.65 59.672 1167.17 59.192C1166.69 58.712 1166.1 58.472 1165.39 58.472C1164.69 58.472 1164.1 58.712 1163.62 59.192C1163.14 59.672 1162.9 60.2747 1162.9 61ZM1175.89 60.664V57H1177.62V65H1175.89V62.296C1175.26 62.5307 1174.59 62.648 1173.87 62.648C1172.86 62.648 1172.07 62.4027 1171.5 61.912C1170.94 61.4107 1170.66 60.6907 1170.66 59.752V57H1172.38V59.592C1172.38 60.552 1172.95 61.032 1174.1 61.032C1174.75 61.032 1175.34 60.9093 1175.89 60.664ZM1181.33 62.072L1185.43 57H1186.75V65H1185.06V59.912L1180.96 65H1179.63V57H1181.33V62.072ZM1187.91 57H1194.87V58.664H1192.26V65H1190.53V58.664H1187.91V57ZM1197.77 59.72H1199.53C1200.39 59.72 1201.09 59.9653 1201.62 60.456C1202.17 60.936 1202.44 61.5707 1202.44 62.36C1202.44 63.1387 1202.17 63.7733 1201.62 64.264C1201.09 64.7547 1200.39 65 1199.53 65H1196.04V57H1197.77V59.72ZM1197.77 63.448H1199.54C1199.88 63.448 1200.17 63.3467 1200.39 63.144C1200.63 62.9413 1200.74 62.68 1200.74 62.36C1200.74 62.04 1200.63 61.7787 1200.41 61.576C1200.18 61.3733 1199.9 61.272 1199.54 61.272H1197.77V63.448ZM1211.63 65.208C1210.42 65.208 1209.41 64.8027 1208.6 63.992C1207.8 63.1707 1207.4 62.1733 1207.4 61C1207.4 59.8053 1207.8 58.808 1208.6 58.008C1209.41 57.1973 1210.42 56.792 1211.63 56.792C1212.41 56.792 1213.12 56.9787 1213.76 57.352C1214.4 57.7253 1214.88 58.2267 1215.2 58.856L1213.71 59.72C1213.53 59.336 1213.25 59.0373 1212.88 58.824C1212.51 58.6 1212.09 58.488 1211.61 58.488C1210.91 58.488 1210.32 58.728 1209.84 59.208C1209.37 59.6987 1209.13 60.296 1209.13 61C1209.13 61.704 1209.37 62.3013 1209.84 62.792C1210.32 63.272 1210.91 63.512 1211.61 63.512C1212.08 63.512 1212.5 63.4053 1212.88 63.192C1213.26 62.968 1213.55 62.664 1213.74 62.28L1215.23 63.128C1214.89 63.768 1214.39 64.2747 1213.74 64.648C1213.1 65.0213 1212.4 65.208 1211.63 65.208ZM1224.08 61.736H1217.71C1217.84 62.3333 1218.13 62.7973 1218.58 63.128C1219.03 63.4587 1219.6 63.624 1220.27 63.624C1221.18 63.624 1221.87 63.2933 1222.34 62.632L1223.76 63.464C1222.98 64.6267 1221.81 65.208 1220.26 65.208C1218.97 65.208 1217.91 64.8133 1217.1 64.024C1216.3 63.224 1215.9 62.216 1215.9 61C1215.9 59.816 1216.3 58.8187 1217.09 58.008C1217.87 57.1973 1218.88 56.792 1220.13 56.792C1221.29 56.792 1222.25 57.2027 1223.01 58.024C1223.77 58.8453 1224.14 59.8427 1224.14 61.016C1224.14 61.2293 1224.12 61.4693 1224.08 61.736ZM1217.7 60.328H1222.4C1222.28 59.6987 1222.02 59.2133 1221.6 58.872C1221.19 58.5307 1220.7 58.36 1220.11 58.36C1219.47 58.36 1218.94 58.536 1218.51 58.888C1218.09 59.24 1217.81 59.72 1217.7 60.328ZM1231.46 55.88H1226.98V54.376H1231.46V55.88ZM1227.36 62.072L1231.46 57H1232.78V65H1231.09V59.912L1226.99 65H1225.66V57H1227.36V62.072ZM1239.65 60.664V57H1241.38V65H1239.65V62.296C1239.02 62.5307 1238.35 62.648 1237.64 62.648C1236.62 62.648 1235.83 62.4027 1235.27 61.912C1234.7 61.4107 1234.42 60.6907 1234.42 59.752V57H1236.15V59.592C1236.15 60.552 1236.72 61.032 1237.86 61.032C1238.51 61.032 1239.11 60.9093 1239.65 60.664ZM1249.73 58.136V57H1251.46V65H1249.73V63.848C1249.08 64.7547 1248.15 65.208 1246.93 65.208C1245.84 65.208 1244.9 64.8027 1244.12 63.992C1243.34 63.1813 1242.95 62.184 1242.95 61C1242.95 59.816 1243.34 58.8187 1244.12 58.008C1244.9 57.1973 1245.84 56.792 1246.93 56.792C1248.15 56.792 1249.08 57.24 1249.73 58.136ZM1245.4 62.84C1245.88 63.32 1246.48 63.56 1247.21 63.56C1247.93 63.56 1248.53 63.32 1249.01 62.84C1249.49 62.3493 1249.73 61.736 1249.73 61C1249.73 60.264 1249.49 59.656 1249.01 59.176C1248.53 58.6853 1247.93 58.44 1247.21 58.44C1246.48 58.44 1245.88 58.6853 1245.4 59.176C1244.92 59.656 1244.68 60.264 1244.68 61C1244.68 61.7253 1244.92 62.3387 1245.4 62.84ZM1257.25 65.208C1256.05 65.208 1255.04 64.8027 1254.23 63.992C1253.43 63.1707 1253.03 62.1733 1253.03 61C1253.03 59.8053 1253.43 58.808 1254.23 58.008C1255.04 57.1973 1256.05 56.792 1257.25 56.792C1258.03 56.792 1258.74 56.9787 1259.38 57.352C1260.02 57.7253 1260.5 58.2267 1260.82 58.856L1259.33 59.72C1259.15 59.336 1258.87 59.0373 1258.5 58.824C1258.14 58.6 1257.72 58.488 1257.24 58.488C1256.53 58.488 1255.94 58.728 1255.46 59.208C1254.99 59.6987 1254.76 60.296 1254.76 61C1254.76 61.704 1254.99 62.3013 1255.46 62.792C1255.94 63.272 1256.53 63.512 1257.24 63.512C1257.71 63.512 1258.13 63.4053 1258.5 63.192C1258.88 62.968 1259.17 62.664 1259.36 62.28L1260.85 63.128C1260.51 63.768 1260.02 64.2747 1259.36 64.648C1258.72 65.0213 1258.02 65.208 1257.25 65.208Z" fill="#F7F8F8"/>
</g>
<defs>
<filter id="filter0_d_1_190" x="0" y="0" width="1336" height="130" filterUnits="userSpaceOnUse" color-interpolation-filters="sRGB">
<feFlood flood-opacity="0" result="BackgroundImageFix"/>
<feColorMatrix in="SourceAlpha" type="matrix" values="0 0 0 0 0 0 0 0 0 0 0 0 0 0 0 0 0 0 127 0" result="hardAlpha"/>
<feOffset dy="4"/>
<feGaussianBlur stdDeviation="6"/>
<feComposite in2="hardAlpha" operator="out"/>
<feColorMatrix type="matrix" values="0 0 0 0 0 0 0 0 0 0 0 0 0 0 0 0 0 0 0.05 0"/>
<feBlend mode="normal" in2="BackgroundImageFix" result="effect1_dropShadow_1_190"/>
<feBlend mode="normal" in="SourceGraphic" in2="effect1_dropShadow_1_190" result="shape"/>
</filter>
<linearGradient id="paint0_linear_1_190" x1="1156.53" y1="41.9438" x2="1077.06" y2="348.246" gradientUnits="userSpaceOnUse">
<stop stop-color="#EBF5EB"/>
<stop offset="1" stop-color="#EFFBF0"/>
</linearGradient>
<linearGradient id="paint1_linear_1_190" x1="1077.06" y1="33.3437" x2="1222.79" y2="175.437" gradientUnits="userSpaceOnUse">
<stop stop-color="#43A548"/>
<stop offset="1" stop-color="#52E259"/>
</linearGradient>
</defs>
</svg>
