<svg width="1650" height="360" viewBox="0 0 1650 360" fill="none" xmlns="http://www.w3.org/2000/svg">
<path d="M849.055 167.892H612.738V166.147H848.332L940.307 74.1731H1311.93L1337.01 49.078H1438.29L1443.74 43.6211L1444.98 44.8544L1439.01 50.8232H1337.74L1312.65 75.9183H941.03L849.055 167.892Z" fill="url(#paint0_linear_79_95)"/>
<path d="M612.936 170.956C610.762 170.956 609 169.194 609 167.021C609 164.847 610.762 163.085 612.936 163.085C615.109 163.085 616.872 164.847 616.872 167.021C616.871 169.194 615.109 170.956 612.936 170.956Z" fill="url(#paint1_linear_79_95)"/>
<path d="M1447 47.1598C1448.54 45.6228 1448.54 43.1304 1447 41.5938C1445.47 40.0568 1442.97 40.0568 1441.44 41.5938C1439.9 43.1304 1439.9 45.6228 1441.44 47.1598C1442.97 48.6964 1445.47 48.6964 1447 47.1598Z" fill="url(#paint2_linear_79_95)"/>
<path d="M868.566 189.282H639.687V187.537H867.843L958.892 96.4821H1330.51L1352.35 74.6442H1481.02L1500.65 55.0006L1501.88 56.2339L1481.74 76.3894H1353.07L1331.23 98.2273H959.616L868.566 189.282Z" fill="url(#paint3_linear_79_95)"/>
<path d="M639.884 192.345C637.71 192.345 635.948 190.583 635.948 188.41C635.948 186.236 637.71 184.474 639.884 184.474C642.057 184.474 643.819 186.237 643.819 188.41C643.819 190.583 642.057 192.345 639.884 192.345Z" fill="url(#paint4_linear_79_95)"/>
<path d="M1503.91 58.5387C1505.45 57.0017 1505.45 54.5089 1503.91 52.9723C1502.37 51.4358 1499.88 51.4366 1498.34 52.9741C1496.81 54.5111 1496.81 57.0035 1498.34 58.5401C1499.88 60.0762 1502.37 60.0757 1503.91 58.5387Z" fill="url(#paint5_linear_79_95)"/>
<path d="M881.568 217.139H618.31V215.394H880.845L963.07 133.168H1296.85L1327.05 163.364H1472.65L1488.68 147.333H1591.11L1606.79 131.657H1646.26V133.402H1607.51L1591.83 149.078H1489.4L1473.38 165.109H1326.33L1296.13 134.913H963.793L881.568 217.139Z" fill="url(#paint6_linear_79_95)"/>
<path d="M618.506 220.202C616.333 220.202 614.57 218.44 614.57 216.267C614.57 214.093 616.333 212.331 618.506 212.331C620.68 212.331 622.442 214.093 622.442 216.267C622.442 218.44 620.68 220.202 618.506 220.202Z" fill="url(#paint7_linear_79_95)"/>
<path d="M1646.06 136.466C1648.24 136.466 1650 134.703 1650 132.53C1650 130.356 1648.24 128.594 1646.06 128.594C1643.89 128.594 1642.13 130.356 1642.13 132.53C1642.13 134.703 1643.89 136.466 1646.06 136.466Z" fill="url(#paint8_linear_79_95)"/>
<path d="M839.879 147.335L838.646 146.102L938.454 46.2919H1189.3L1232.03 3.56348H1436.76V5.30865H1232.75L1190.02 48.0371H939.177L839.879 147.335Z" fill="url(#paint9_linear_79_95)"/>
<path d="M842.184 149.362C840.647 150.899 838.155 150.899 836.618 149.362C835.081 147.825 835.081 145.333 836.618 143.796C838.155 142.259 840.647 142.259 842.184 143.796C843.72 145.333 843.72 147.825 842.184 149.362Z" fill="url(#paint10_linear_79_95)"/>
<path d="M1436.56 8.37127C1438.74 8.37127 1440.5 6.60901 1440.5 4.43564C1440.5 2.26228 1438.74 0.5 1436.56 0.5C1434.39 0.5 1432.63 2.26271 1432.63 4.43564C1432.63 6.60901 1434.39 8.37127 1436.56 8.37127Z" fill="url(#paint11_linear_79_95)"/>
<path d="M1478.03 32.2442H1206.38V30.499H1477.3L1487.41 20.3912L1488.64 21.6241L1478.03 32.2442Z" fill="url(#paint12_linear_79_95)"/>
<path d="M1490.67 23.9293C1492.21 22.3927 1492.21 19.9003 1490.67 18.3633C1489.13 16.8267 1486.64 16.8267 1485.11 18.3637C1483.57 19.9007 1483.57 22.3932 1485.11 23.9297C1486.64 25.4667 1489.14 25.4663 1490.67 23.9293Z" fill="url(#paint13_linear_79_95)"/>
<path d="M1554.75 281.682H1349.56L1349.3 281.426L1311.93 244.075H1080.6L1080.34 243.818L1047.15 210.623H887.715V208.878H1047.87L1048.13 209.134L1081.32 242.33H1312.65L1312.91 242.586L1350.28 279.937H1554.75V281.682Z" fill="url(#paint14_linear_79_95)"/>
<path d="M1554.56 284.745C1556.73 284.745 1558.49 282.983 1558.49 280.809C1558.49 278.636 1556.73 276.874 1554.56 276.874C1552.38 276.874 1550.62 278.636 1550.62 280.809C1550.62 282.983 1552.38 284.745 1554.56 284.745Z" fill="url(#paint15_linear_79_95)"/>
<path d="M1481.74 244.524H1358.38L1331.9 218.059H1103.36L1074.09 188.787H911.406V187.041H1074.81L1104.08 216.315H1332.63L1359.1 242.779H1481.02L1498.32 225.492L1499.56 226.727L1481.74 244.524Z" fill="url(#paint16_linear_79_95)"/>
<path d="M1501.58 229.033C1503.12 227.497 1503.12 225.005 1501.59 223.467C1500.05 221.929 1497.56 221.928 1496.02 223.464C1494.48 224.999 1494.48 227.492 1496.02 229.03C1497.55 230.567 1500.04 230.569 1501.58 229.033Z" fill="url(#paint17_linear_79_95)"/>
<path d="M1459.44 210.742H1358.73L1333.3 185.314H1148.65L1124.26 160.93H940.669V159.185H1124.99L1149.37 183.569H1334.02L1359.45 208.997H1458.72L1494.08 173.632H1605.04L1616.34 162.343L1617.58 163.577L1605.77 175.377H1494.8L1459.44 210.742Z" fill="url(#paint18_linear_79_95)"/>
<path d="M1619.6 165.883C1621.14 164.347 1621.14 161.854 1619.6 160.317C1618.07 158.779 1615.58 158.778 1614.04 160.315C1612.5 161.851 1612.5 164.343 1614.04 165.881C1615.57 167.418 1618.06 167.419 1619.6 165.883Z" fill="url(#paint19_linear_79_95)"/>
<path d="M1412.06 145.584H1305.79V143.838H1411.34L1444.09 111.096H1577.17L1607.37 80.8979L1608.61 82.1308L1577.9 112.841H1444.81L1412.06 145.584Z" fill="url(#paint20_linear_79_95)"/>
<path d="M1610.63 84.4365C1612.17 82.8995 1612.17 80.4071 1610.63 78.8701C1609.1 77.3335 1606.6 77.3335 1605.07 78.8701C1603.53 80.4071 1603.53 82.8995 1605.07 84.4365C1606.6 85.9731 1609.1 85.9731 1610.63 84.4365Z" fill="url(#paint21_linear_79_95)"/>
<path d="M1367.54 356.023H1096.39L1096.13 355.767L1036.47 296.107H777.26L777.005 295.851L699.661 218.488L700.894 217.255L777.983 294.362H1037.19L1037.45 294.618L1097.11 354.278H1367.54V356.023Z" fill="url(#paint22_linear_79_95)"/>
<path d="M1367.35 359.085C1369.52 359.085 1371.28 357.323 1371.28 355.15C1371.28 352.976 1369.52 351.214 1367.35 351.214C1365.17 351.214 1363.41 352.976 1363.41 355.15C1363.41 357.323 1365.17 359.085 1367.35 359.085Z" fill="url(#paint23_linear_79_95)"/>
<path d="M1264.89 300.757H1171.64L1139.13 268.225H1016.49L992.337 244.075H726.99V242.33H993.061L1017.22 266.48H1139.85L1172.37 299.012H1264.89V300.757Z" fill="url(#paint24_linear_79_95)"/>
<path d="M1264.69 303.82C1266.87 303.82 1268.63 302.057 1268.63 299.884C1268.63 297.711 1266.87 295.948 1264.69 295.948C1262.52 295.948 1260.76 297.71 1260.76 299.884C1260.76 302.057 1262.52 303.82 1264.69 303.82Z" fill="url(#paint25_linear_79_95)"/>
<path d="M953.655 275.19H821.855L821.601 274.935L790.71 244.054L791.943 242.821L822.579 273.445H953.655V275.19Z" fill="url(#paint26_linear_79_95)"/>
<path d="M953.458 278.253C955.632 278.253 957.394 276.491 957.394 274.317C957.394 272.144 955.632 270.381 953.458 270.381C951.285 270.381 949.523 272.144 949.523 274.317C949.523 276.491 951.285 278.253 953.458 278.253Z" fill="url(#paint27_linear_79_95)"/>
<path d="M1329.84 336.853H1160.15L1139.59 316.314H1111.02L1110.76 316.058L1064.08 269.363L1065.31 268.13L1111.74 314.569H1140.31L1160.87 335.108H1329.12L1346.71 317.52H1437.12L1473.88 280.76L1475.11 281.992L1437.84 319.265H1347.43L1329.84 336.853Z" fill="url(#paint28_linear_79_95)"/>
<path d="M1340.63 271.366H1200.56L1173.48 244.268L1174.71 243.035L1201.28 269.621H1340.63V271.366Z" fill="url(#paint29_linear_79_95)"/>
<path d="M1078.64 337.915H905.468L905.213 337.659L864.803 297.243L866.036 296.01L906.191 336.17H1078.64V337.915Z" fill="url(#paint30_linear_79_95)"/>
<rect x="1" y="157.221" width="658" height="69" fill="#31000F" stroke="white" stroke-width="2"/>
<mask id="path-33-inside-1_79_95" fill="white">
<path d="M0 156.221H546.857V227.221H0V156.221Z"/>
</mask>
<path d="M0 156.221H546.857V227.221H0V156.221Z" fill="#DC052D"/>
<path d="M0 156.221V154.221H-2V156.221H0ZM0 227.221H-2V229.221H0V227.221ZM0 158.221H546.857V154.221H0V158.221ZM546.857 225.221H0V229.221H546.857V225.221ZM2 227.221V156.221H-2V227.221H2Z" fill="white" mask="url(#path-33-inside-1_79_95)"/>
<path d="M246.31 204.848C244.463 204.848 242.822 204.537 241.388 203.916C239.963 203.294 238.845 202.445 238.033 201.368C237.229 200.282 236.831 199.052 236.839 197.676C236.831 196.608 237.063 195.626 237.536 194.731C238.008 193.836 238.646 193.09 239.45 192.494C240.262 191.889 241.165 191.503 242.159 191.338V191.164C240.85 190.874 239.789 190.207 238.977 189.163C238.174 188.11 237.776 186.896 237.784 185.521C237.776 184.212 238.14 183.043 238.878 182.016C239.615 180.989 240.626 180.181 241.911 179.592C243.195 178.996 244.661 178.697 246.31 178.697C247.943 178.697 249.397 178.996 250.673 179.592C251.957 180.181 252.968 180.989 253.706 182.016C254.451 183.043 254.824 184.212 254.824 185.521C254.824 186.896 254.414 188.11 253.594 189.163C252.782 190.207 251.734 190.874 250.449 191.164V191.338C251.444 191.503 252.338 191.889 253.134 192.494C253.938 193.09 254.576 193.836 255.048 194.731C255.529 195.626 255.769 196.608 255.769 197.676C255.769 199.052 255.363 200.282 254.551 201.368C253.739 202.445 252.62 203.294 251.195 203.916C249.778 204.537 248.15 204.848 246.31 204.848ZM246.31 201.293C247.263 201.293 248.092 201.132 248.796 200.809C249.5 200.477 250.047 200.013 250.437 199.417C250.826 198.82 251.025 198.132 251.033 197.353C251.025 196.541 250.814 195.825 250.4 195.203C249.993 194.573 249.434 194.08 248.722 193.724C248.017 193.368 247.214 193.19 246.31 193.19C245.399 193.19 244.587 193.368 243.874 193.724C243.162 194.08 242.598 194.573 242.184 195.203C241.778 195.825 241.579 196.541 241.587 197.353C241.579 198.132 241.77 198.82 242.159 199.417C242.549 200.005 243.095 200.465 243.8 200.796C244.512 201.128 245.349 201.293 246.31 201.293ZM246.31 189.697C247.089 189.697 247.777 189.54 248.374 189.225C248.978 188.91 249.455 188.471 249.803 187.907C250.151 187.344 250.329 186.693 250.337 185.956C250.329 185.227 250.155 184.589 249.815 184.042C249.476 183.487 249.003 183.06 248.398 182.762C247.794 182.455 247.098 182.302 246.31 182.302C245.507 182.302 244.798 182.455 244.185 182.762C243.58 183.06 243.108 183.487 242.768 184.042C242.437 184.589 242.275 185.227 242.283 185.956C242.275 186.693 242.441 187.344 242.781 187.907C243.129 188.462 243.605 188.902 244.21 189.225C244.823 189.54 245.523 189.697 246.31 189.697ZM259.395 199.777V196.11L270.196 179.045H273.253V184.266H271.389L264.118 195.787V195.986H279.194V199.777H259.395ZM271.538 204.5V198.658L271.588 197.018V179.045H275.938V204.5H271.538ZM296.775 199.727V198.385C296.775 197.399 296.982 196.492 297.397 195.663C297.819 194.834 298.432 194.167 299.236 193.662C300.04 193.156 301.013 192.904 302.157 192.904C303.333 192.904 304.32 193.156 305.115 193.662C305.91 194.159 306.511 194.822 306.917 195.651C307.331 196.479 307.539 197.391 307.539 198.385V199.727C307.539 200.713 307.331 201.621 306.917 202.449C306.503 203.278 305.894 203.945 305.09 204.45C304.295 204.956 303.317 205.208 302.157 205.208C300.997 205.208 300.015 204.956 299.211 204.45C298.407 203.945 297.798 203.278 297.384 202.449C296.978 201.621 296.775 200.713 296.775 199.727ZM300.019 198.385V199.727C300.019 200.382 300.177 200.983 300.491 201.529C300.806 202.076 301.361 202.35 302.157 202.35C302.961 202.35 303.512 202.08 303.81 201.542C304.117 200.995 304.27 200.39 304.27 199.727V198.385C304.27 197.722 304.125 197.117 303.835 196.57C303.545 196.015 302.985 195.738 302.157 195.738C301.378 195.738 300.827 196.015 300.504 196.57C300.181 197.117 300.019 197.722 300.019 198.385ZM283.837 185.161V183.818C283.837 182.824 284.048 181.912 284.47 181.084C284.893 180.255 285.506 179.592 286.31 179.095C287.114 178.59 288.087 178.337 289.231 178.337C290.399 178.337 291.381 178.59 292.176 179.095C292.98 179.592 293.585 180.255 293.991 181.084C294.397 181.912 294.6 182.824 294.6 183.818V185.161C294.6 186.155 294.393 187.066 293.979 187.895C293.573 188.715 292.968 189.374 292.164 189.871C291.36 190.368 290.382 190.617 289.231 190.617C288.062 190.617 287.076 190.368 286.273 189.871C285.477 189.374 284.872 188.711 284.458 187.882C284.044 187.054 283.837 186.147 283.837 185.161ZM287.105 183.818V185.161C287.105 185.823 287.259 186.428 287.565 186.975C287.88 187.514 288.435 187.783 289.231 187.783C290.026 187.783 290.573 187.514 290.871 186.975C291.178 186.428 291.331 185.823 291.331 185.161V183.818C291.331 183.155 291.186 182.55 290.896 182.004C290.606 181.448 290.051 181.171 289.231 181.171C288.444 181.171 287.893 181.448 287.578 182.004C287.263 182.559 287.105 183.164 287.105 183.818ZM285.253 204.5L302.753 179.045H305.861L288.361 204.5H285.253Z" fill="white"/>
<defs>
<linearGradient id="paint0_linear_79_95" x1="651.923" y1="105.757" x2="1375.98" y2="105.757" gradientUnits="userSpaceOnUse">
<stop offset="0.1824" stop-color="white"/>
<stop offset="0.2789" stop-color="#DDC7C7"/>
<stop offset="0.3814" stop-color="#BD9393"/>
<stop offset="0.4857" stop-color="#A16666"/>
<stop offset="0.5897" stop-color="#8B4141"/>
<stop offset="0.6932" stop-color="#792525"/>
<stop offset="0.7964" stop-color="#6D1010"/>
<stop offset="0.8988" stop-color="#650404"/>
<stop offset="1" stop-color="#630000"/>
</linearGradient>
<linearGradient id="paint1_linear_79_95" x1="651.924" y1="167.02" x2="1375.99" y2="167.02" gradientUnits="userSpaceOnUse">
<stop offset="0.1824" stop-color="white"/>
<stop offset="0.2789" stop-color="#DDC7C7"/>
<stop offset="0.3814" stop-color="#BD9393"/>
<stop offset="0.4857" stop-color="#A16666"/>
<stop offset="0.5897" stop-color="#8B4141"/>
<stop offset="0.6932" stop-color="#792525"/>
<stop offset="0.7964" stop-color="#6D1010"/>
<stop offset="0.8988" stop-color="#650404"/>
<stop offset="1" stop-color="#630000"/>
</linearGradient>
<linearGradient id="paint2_linear_79_95" x1="651.917" y1="44.3768" x2="1375.97" y2="44.3768" gradientUnits="userSpaceOnUse">
<stop offset="0.1824" stop-color="white"/>
<stop offset="0.2789" stop-color="#DDC7C7"/>
<stop offset="0.3814" stop-color="#BD9393"/>
<stop offset="0.4857" stop-color="#A16666"/>
<stop offset="0.5897" stop-color="#8B4141"/>
<stop offset="0.6932" stop-color="#792525"/>
<stop offset="0.7964" stop-color="#6D1010"/>
<stop offset="0.8988" stop-color="#650404"/>
<stop offset="1" stop-color="#630000"/>
</linearGradient>
<linearGradient id="paint3_linear_79_95" x1="651.923" y1="122.141" x2="1375.98" y2="122.141" gradientUnits="userSpaceOnUse">
<stop offset="0.1824" stop-color="white"/>
<stop offset="0.2789" stop-color="#630000"/>
<stop offset="0.3814" stop-color="#630000"/>
<stop offset="0.4857" stop-color="#630000"/>
<stop offset="0.5897" stop-color="#630000"/>
<stop offset="0.6932" stop-color="#630000"/>
<stop offset="0.7964" stop-color="#630000"/>
<stop offset="0.8988" stop-color="#630000"/>
<stop offset="1" stop-color="#630000"/>
</linearGradient>
<linearGradient id="paint4_linear_79_95" x1="651.923" y1="188.409" x2="1375.99" y2="188.409" gradientUnits="userSpaceOnUse">
<stop offset="0.1824" stop-color="white"/>
<stop offset="0.2789" stop-color="#630000"/>
<stop offset="0.3814" stop-color="#630000"/>
<stop offset="0.4857" stop-color="#630000"/>
<stop offset="0.5897" stop-color="#630000"/>
<stop offset="0.6932" stop-color="#630000"/>
<stop offset="0.7964" stop-color="#630000"/>
<stop offset="0.8988" stop-color="#630000"/>
<stop offset="1" stop-color="#630000"/>
</linearGradient>
<linearGradient id="paint5_linear_79_95" x1="651.927" y1="55.7562" x2="1375.98" y2="55.7562" gradientUnits="userSpaceOnUse">
<stop offset="0.1824" stop-color="white"/>
<stop offset="0.2789" stop-color="#DDC7C7"/>
<stop offset="0.3814" stop-color="#BD9393"/>
<stop offset="0.4857" stop-color="#A16666"/>
<stop offset="0.5897" stop-color="#8B4141"/>
<stop offset="0.6932" stop-color="#792525"/>
<stop offset="0.7964" stop-color="#6D1010"/>
<stop offset="0.8988" stop-color="#650404"/>
<stop offset="1" stop-color="#630000"/>
</linearGradient>
<linearGradient id="paint6_linear_79_95" x1="651.922" y1="174.398" x2="1375.97" y2="174.398" gradientUnits="userSpaceOnUse">
<stop offset="0.1824" stop-color="white"/>
<stop offset="0.2789" stop-color="#630000"/>
<stop offset="0.3814" stop-color="#630000"/>
<stop offset="0.4857" stop-color="#630000"/>
<stop offset="0.5897" stop-color="#630000"/>
<stop offset="0.6932" stop-color="#630000"/>
<stop offset="0.7964" stop-color="#630000"/>
<stop offset="0.8988" stop-color="#630000"/>
<stop offset="1" stop-color="#630000"/>
</linearGradient>
<linearGradient id="paint7_linear_79_95" x1="651.923" y1="216.267" x2="1375.99" y2="216.267" gradientUnits="userSpaceOnUse">
<stop offset="0.1824" stop-color="white"/>
<stop offset="0.2789" stop-color="#DDC7C7"/>
<stop offset="0.3814" stop-color="#BD9393"/>
<stop offset="0.4857" stop-color="#A16666"/>
<stop offset="0.5897" stop-color="#8B4141"/>
<stop offset="0.6932" stop-color="#792525"/>
<stop offset="0.7964" stop-color="#6D1010"/>
<stop offset="0.8988" stop-color="#650404"/>
<stop offset="1" stop-color="#630000"/>
</linearGradient>
<linearGradient id="paint8_linear_79_95" x1="651.91" y1="132.53" x2="1375.97" y2="132.53" gradientUnits="userSpaceOnUse">
<stop offset="0.1824" stop-color="white"/>
<stop offset="0.2789" stop-color="#DDC7C7"/>
<stop offset="0.3814" stop-color="#BD9393"/>
<stop offset="0.4857" stop-color="#A16666"/>
<stop offset="0.5897" stop-color="#8B4141"/>
<stop offset="0.6932" stop-color="#792525"/>
<stop offset="0.7964" stop-color="#6D1010"/>
<stop offset="0.8988" stop-color="#650404"/>
<stop offset="1" stop-color="#630000"/>
</linearGradient>
<linearGradient id="paint9_linear_79_95" x1="651.923" y1="75.4494" x2="1375.98" y2="75.4494" gradientUnits="userSpaceOnUse">
<stop offset="0.1824" stop-color="white"/>
<stop offset="0.2789" stop-color="#DDC7C7"/>
<stop offset="0.3814" stop-color="#BD9393"/>
<stop offset="0.4857" stop-color="#A16666"/>
<stop offset="0.5897" stop-color="#8B4141"/>
<stop offset="0.6932" stop-color="#792525"/>
<stop offset="0.7964" stop-color="#6D1010"/>
<stop offset="0.8988" stop-color="#650404"/>
<stop offset="1" stop-color="#630000"/>
</linearGradient>
<linearGradient id="paint10_linear_79_95" x1="651.924" y1="146.579" x2="1375.97" y2="146.579" gradientUnits="userSpaceOnUse">
<stop offset="0.1824" stop-color="white"/>
<stop offset="0.2789" stop-color="#DDC7C7"/>
<stop offset="0.3814" stop-color="#BD9393"/>
<stop offset="0.4857" stop-color="#A16666"/>
<stop offset="0.5897" stop-color="#8B4141"/>
<stop offset="0.6932" stop-color="#792525"/>
<stop offset="0.7964" stop-color="#6D1010"/>
<stop offset="0.8988" stop-color="#650404"/>
<stop offset="1" stop-color="#630000"/>
</linearGradient>
<linearGradient id="paint11_linear_79_95" x1="651.908" y1="4.4356" x2="1375.97" y2="4.4356" gradientUnits="userSpaceOnUse">
<stop offset="0.1824" stop-color="white"/>
<stop offset="0.2789" stop-color="#DDC7C7"/>
<stop offset="0.3814" stop-color="#BD9393"/>
<stop offset="0.4857" stop-color="#A16666"/>
<stop offset="0.5897" stop-color="#8B4141"/>
<stop offset="0.6932" stop-color="#792525"/>
<stop offset="0.7964" stop-color="#6D1010"/>
<stop offset="0.8988" stop-color="#650404"/>
<stop offset="1" stop-color="#630000"/>
</linearGradient>
<linearGradient id="paint12_linear_79_95" x1="651.922" y1="26.3178" x2="1375.97" y2="26.3178" gradientUnits="userSpaceOnUse">
<stop offset="0.1824" stop-color="white"/>
<stop offset="0.2789" stop-color="#DDC7C7"/>
<stop offset="0.3814" stop-color="#BD9393"/>
<stop offset="0.4857" stop-color="#A16666"/>
<stop offset="0.5897" stop-color="#8B4141"/>
<stop offset="0.6932" stop-color="#792525"/>
<stop offset="0.7964" stop-color="#6D1010"/>
<stop offset="0.8988" stop-color="#650404"/>
<stop offset="1" stop-color="#630000"/>
</linearGradient>
<linearGradient id="paint13_linear_79_95" x1="651.911" y1="21.1467" x2="1375.97" y2="21.1467" gradientUnits="userSpaceOnUse">
<stop offset="0.1824" stop-color="white"/>
<stop offset="0.2789" stop-color="#DDC7C7"/>
<stop offset="0.3814" stop-color="#BD9393"/>
<stop offset="0.4857" stop-color="#A16666"/>
<stop offset="0.5897" stop-color="#8B4141"/>
<stop offset="0.6932" stop-color="#792525"/>
<stop offset="0.7964" stop-color="#6D1010"/>
<stop offset="0.8988" stop-color="#650404"/>
<stop offset="1" stop-color="#630000"/>
</linearGradient>
<linearGradient id="paint14_linear_79_95" x1="651.923" y1="245.28" x2="1375.98" y2="245.28" gradientUnits="userSpaceOnUse">
<stop offset="0.1824" stop-color="white"/>
<stop offset="0.2789" stop-color="#630000"/>
<stop offset="0.3814" stop-color="#630000"/>
<stop offset="0.4857" stop-color="#630000"/>
<stop offset="0.5897" stop-color="#630000"/>
<stop offset="0.6932" stop-color="#630000"/>
<stop offset="0.7964" stop-color="#630000"/>
<stop offset="0.8988" stop-color="#630000"/>
<stop offset="1" stop-color="#630000"/>
</linearGradient>
<linearGradient id="paint15_linear_79_95" x1="651.94" y1="280.809" x2="1375.98" y2="280.809" gradientUnits="userSpaceOnUse">
<stop offset="0.1824" stop-color="white"/>
<stop offset="0.2789" stop-color="#630000"/>
<stop offset="0.3814" stop-color="#630000"/>
<stop offset="0.4857" stop-color="#630000"/>
<stop offset="0.5897" stop-color="#630000"/>
<stop offset="0.6932" stop-color="#630000"/>
<stop offset="0.7964" stop-color="#630000"/>
<stop offset="0.8988" stop-color="#630000"/>
<stop offset="1" stop-color="#630000"/>
</linearGradient>
<linearGradient id="paint16_linear_79_95" x1="651.923" y1="215.783" x2="1375.98" y2="215.783" gradientUnits="userSpaceOnUse">
<stop offset="0.1824" stop-color="#630101"/>
<stop offset="0.2789" stop-color="#630101"/>
<stop offset="0.3814" stop-color="#630101"/>
<stop offset="0.4857" stop-color="#A16666"/>
<stop offset="0.5897" stop-color="#8B4141"/>
<stop offset="0.6932" stop-color="#792525"/>
<stop offset="0.7964" stop-color="#6D1010"/>
<stop offset="0.8988" stop-color="#650404"/>
<stop offset="1" stop-color="#630000"/>
</linearGradient>
<linearGradient id="paint17_linear_79_95" x1="651.932" y1="226.248" x2="1375.98" y2="226.248" gradientUnits="userSpaceOnUse">
<stop offset="0.1824" stop-color="white"/>
<stop offset="0.2789" stop-color="#630000"/>
<stop offset="0.3814" stop-color="#630000"/>
<stop offset="0.4857" stop-color="#630000"/>
<stop offset="0.5897" stop-color="#630000"/>
<stop offset="0.6932" stop-color="#630000"/>
<stop offset="0.7964" stop-color="#630000"/>
<stop offset="0.8988" stop-color="#630000"/>
<stop offset="1" stop-color="#630000"/>
</linearGradient>
<linearGradient id="paint18_linear_79_95" x1="651.923" y1="184.963" x2="1375.98" y2="184.963" gradientUnits="userSpaceOnUse">
<stop offset="0.1824" stop-color="#630101"/>
<stop offset="0.2789" stop-color="#630101"/>
<stop offset="0.3814" stop-color="#630101"/>
<stop offset="0.4857" stop-color="#A16666"/>
<stop offset="0.5897" stop-color="#8B4141"/>
<stop offset="0.6932" stop-color="#792525"/>
<stop offset="0.7964" stop-color="#6D1010"/>
<stop offset="0.8988" stop-color="#650404"/>
<stop offset="1" stop-color="#630000"/>
</linearGradient>
<linearGradient id="paint19_linear_79_95" x1="651.921" y1="163.099" x2="1375.97" y2="163.099" gradientUnits="userSpaceOnUse">
<stop offset="0.1824" stop-color="white"/>
<stop offset="0.2789" stop-color="#DDC7C7"/>
<stop offset="0.3814" stop-color="#BD9393"/>
<stop offset="0.4857" stop-color="#A16666"/>
<stop offset="0.5897" stop-color="#8B4141"/>
<stop offset="0.6932" stop-color="#792525"/>
<stop offset="0.7964" stop-color="#6D1010"/>
<stop offset="0.8988" stop-color="#650404"/>
<stop offset="1" stop-color="#630000"/>
</linearGradient>
<linearGradient id="paint20_linear_79_95" x1="651.922" y1="113.241" x2="1375.97" y2="113.241" gradientUnits="userSpaceOnUse">
<stop offset="0.1824" stop-color="white"/>
<stop offset="0.2789" stop-color="#630000"/>
<stop offset="0.3814" stop-color="#630000"/>
<stop offset="0.4857" stop-color="#630000"/>
<stop offset="0.5897" stop-color="#630000"/>
<stop offset="0.6932" stop-color="#630000"/>
<stop offset="0.7964" stop-color="#630000"/>
<stop offset="0.8988" stop-color="#630000"/>
<stop offset="1" stop-color="#630000"/>
</linearGradient>
<linearGradient id="paint21_linear_79_95" x1="651.935" y1="81.6533" x2="1375.98" y2="81.6533" gradientUnits="userSpaceOnUse">
<stop offset="0.1824" stop-color="white"/>
<stop offset="0.2789" stop-color="#630000"/>
<stop offset="0.3814" stop-color="#630000"/>
<stop offset="0.4857" stop-color="#630000"/>
<stop offset="0.5897" stop-color="#630000"/>
<stop offset="0.6932" stop-color="#630000"/>
<stop offset="0.7964" stop-color="#630000"/>
<stop offset="0.8988" stop-color="#630000"/>
<stop offset="1" stop-color="#630000"/>
</linearGradient>
<linearGradient id="paint22_linear_79_95" x1="651.923" y1="286.639" x2="1375.97" y2="286.639" gradientUnits="userSpaceOnUse">
<stop offset="0.1824" stop-color="white"/>
<stop offset="0.2789" stop-color="#C7D3DD"/>
<stop offset="0.3814" stop-color="#93AABD"/>
<stop offset="0.4857" stop-color="#A16666"/>
<stop offset="0.5897" stop-color="#8B4141"/>
<stop offset="0.6932" stop-color="#792525"/>
<stop offset="0.7964" stop-color="#6D1010"/>
<stop offset="0.8988" stop-color="#650404"/>
<stop offset="1" stop-color="#630000"/>
</linearGradient>
<linearGradient id="paint23_linear_79_95" x1="651.909" y1="355.15" x2="1375.98" y2="355.15" gradientUnits="userSpaceOnUse">
<stop offset="0.1824" stop-color="white"/>
<stop offset="0.2789" stop-color="#DDC7C7"/>
<stop offset="0.3814" stop-color="#BD9393"/>
<stop offset="0.4857" stop-color="#A16666"/>
<stop offset="0.5897" stop-color="#8B4141"/>
<stop offset="0.6932" stop-color="#792525"/>
<stop offset="0.7964" stop-color="#6D1010"/>
<stop offset="0.8988" stop-color="#650404"/>
<stop offset="1" stop-color="#630000"/>
</linearGradient>
<linearGradient id="paint24_linear_79_95" x1="651.923" y1="271.543" x2="1375.98" y2="271.543" gradientUnits="userSpaceOnUse">
<stop offset="0.1824" stop-color="white"/>
<stop offset="0.2789" stop-color="#DDC7C7"/>
<stop offset="0.3814" stop-color="#BD9393"/>
<stop offset="0.4857" stop-color="#A16666"/>
<stop offset="0.5897" stop-color="#8B4141"/>
<stop offset="0.6932" stop-color="#792525"/>
<stop offset="0.7964" stop-color="#6D1010"/>
<stop offset="0.8988" stop-color="#650404"/>
<stop offset="1" stop-color="#630000"/>
</linearGradient>
<linearGradient id="paint25_linear_79_95" x1="651.915" y1="299.884" x2="1375.98" y2="299.884" gradientUnits="userSpaceOnUse">
<stop offset="0.1824" stop-color="white"/>
<stop offset="0.2789" stop-color="#DDC7C7"/>
<stop offset="0.3814" stop-color="#BD9393"/>
<stop offset="0.4857" stop-color="#A16666"/>
<stop offset="0.5897" stop-color="#8B4141"/>
<stop offset="0.6932" stop-color="#792525"/>
<stop offset="0.7964" stop-color="#6D1010"/>
<stop offset="0.8988" stop-color="#650404"/>
<stop offset="1" stop-color="#630000"/>
</linearGradient>
<linearGradient id="paint26_linear_79_95" x1="651.923" y1="259.006" x2="1375.97" y2="259.006" gradientUnits="userSpaceOnUse">
<stop offset="0.1824" stop-color="white"/>
<stop offset="0.2789" stop-color="#DDC7C7"/>
<stop offset="0.3814" stop-color="#BD9393"/>
<stop offset="0.4857" stop-color="#A16666"/>
<stop offset="0.5897" stop-color="#8B4141"/>
<stop offset="0.6932" stop-color="#792525"/>
<stop offset="0.7964" stop-color="#6D1010"/>
<stop offset="0.8988" stop-color="#650404"/>
<stop offset="1" stop-color="#630000"/>
</linearGradient>
<linearGradient id="paint27_linear_79_95" x1="651.918" y1="274.317" x2="1375.98" y2="274.317" gradientUnits="userSpaceOnUse">
<stop offset="0.1824" stop-color="white"/>
<stop offset="0.2789" stop-color="#DDC7C7"/>
<stop offset="0.3814" stop-color="#BD9393"/>
<stop offset="0.4857" stop-color="#A16666"/>
<stop offset="0.5897" stop-color="#8B4141"/>
<stop offset="0.6932" stop-color="#792525"/>
<stop offset="0.7964" stop-color="#6D1010"/>
<stop offset="0.8988" stop-color="#650404"/>
<stop offset="1" stop-color="#630000"/>
</linearGradient>
<linearGradient id="paint28_linear_79_95" x1="651.924" y1="302.492" x2="1375.97" y2="302.492" gradientUnits="userSpaceOnUse">
<stop offset="0.1824" stop-color="white"/>
<stop offset="0.2789" stop-color="#DDC7C7"/>
<stop offset="0.3814" stop-color="#BD9393"/>
<stop offset="0.4857" stop-color="#A16666"/>
<stop offset="0.5897" stop-color="#8B4141"/>
<stop offset="0.6932" stop-color="#792525"/>
<stop offset="0.7964" stop-color="#6D1010"/>
<stop offset="0.8988" stop-color="#650404"/>
<stop offset="1" stop-color="#630000"/>
</linearGradient>
<linearGradient id="paint29_linear_79_95" x1="651.922" y1="257.2" x2="1375.97" y2="257.2" gradientUnits="userSpaceOnUse">
<stop offset="0.1824" stop-color="white"/>
<stop offset="0.2789" stop-color="#DDC7C7"/>
<stop offset="0.3814" stop-color="#BD9393"/>
<stop offset="0.4857" stop-color="#A16666"/>
<stop offset="0.5897" stop-color="#8B4141"/>
<stop offset="0.6932" stop-color="#792525"/>
<stop offset="0.7964" stop-color="#6D1010"/>
<stop offset="0.8988" stop-color="#650404"/>
<stop offset="1" stop-color="#630000"/>
</linearGradient>
<linearGradient id="paint30_linear_79_95" x1="651.923" y1="316.962" x2="1375.97" y2="316.962" gradientUnits="userSpaceOnUse">
<stop offset="0.1824" stop-color="white"/>
<stop offset="0.2789" stop-color="#DDC7C7"/>
<stop offset="0.3814" stop-color="#BD9393"/>
<stop offset="0.4857" stop-color="#A16666"/>
<stop offset="0.5897" stop-color="#8B4141"/>
<stop offset="0.6932" stop-color="#792525"/>
<stop offset="0.7964" stop-color="#6D1010"/>
<stop offset="0.8988" stop-color="#650404"/>
<stop offset="1" stop-color="#630000"/>
</linearGradient>
</defs>
</svg>
