<svg width="45" height="210" viewBox="0 0 45 210" fill="none" xmlns="http://www.w3.org/2000/svg">
<rect x="0.5" y="0.5" width="44" height="44" rx="22" stroke="white"/>
<path d="M28.6071 10.2856H16.3928C13.0342 10.2856 10.2857 13.0342 10.2857 16.3928V28.6077C10.2857 31.9654 13.0342 34.7148 16.3928 34.7148H28.6071C31.9658 34.7148 34.7143 31.9654 34.7143 28.6077V16.3928C34.7143 13.0342 31.9658 10.2856 28.6071 10.2856ZM32.6785 28.6077C32.6785 30.852 30.8528 32.679 28.6071 32.679H16.3928C14.1482 32.679 12.3215 30.852 12.3215 28.6077V16.3928C12.3215 14.1478 14.1482 12.3215 16.3928 12.3215H28.6071C30.8528 12.3215 32.6785 14.1478 32.6785 16.3928V28.6077Z" fill="white"/>
<path d="M29.1169 17.4105C29.9602 17.4105 30.6437 16.7269 30.6437 15.8837C30.6437 15.0405 29.9602 14.3569 29.1169 14.3569C28.2737 14.3569 27.5901 15.0405 27.5901 15.8837C27.5901 16.7269 28.2737 17.4105 29.1169 17.4105Z" fill="white"/>
<path d="M22.4999 16.3928C19.1263 16.3928 16.3928 19.1267 16.3928 22.5C16.3928 25.872 19.1263 28.6077 22.4999 28.6077C25.8725 28.6077 28.607 25.872 28.607 22.5C28.607 19.1267 25.8725 16.3928 22.4999 16.3928ZM22.4999 26.5719C20.2515 26.5719 18.4286 24.7489 18.4286 22.5C18.4286 20.251 20.2515 18.4286 22.4999 18.4286C24.7483 18.4286 26.5712 20.251 26.5712 22.5C26.5712 24.7489 24.7483 26.5719 22.4999 26.5719Z" fill="white"/>
<rect x="0.5" y="55.5" width="44" height="44" rx="22" stroke="white"/>
<path d="M34.2921 70.7527C33.9931 69.3793 32.9304 68.366 31.6512 68.2149C28.6219 67.8574 25.5559 67.8555 22.5039 67.8574C19.4514 67.8555 16.3848 67.8574 13.3556 68.2149C12.0771 68.366 11.0152 69.3793 10.7162 70.7527C10.2905 72.7086 10.2857 74.8436 10.2857 76.8573C10.2857 78.871 10.2857 81.0058 10.7114 82.9614C11.0099 84.3345 12.072 85.3478 13.3513 85.4992C16.3803 85.857 19.4466 85.8588 22.4991 85.857C25.5521 85.8588 28.6177 85.857 31.6464 85.4992C32.9249 85.3481 33.9878 84.3348 34.2868 82.9614C34.7128 81.0055 34.7143 78.8708 34.7143 76.8573C34.7143 74.8436 34.7178 72.7086 34.2921 70.7527ZM19.3475 80.8656V72.3252C21.9362 73.7531 24.525 75.1809 27.1137 76.6086C24.5164 78.0326 21.9433 79.4426 19.3475 80.8656Z" fill="white"/>
<rect x="0.5" y="110.5" width="44" height="44" rx="22" stroke="white"/>
<path d="M25.2693 128.268V125.831C25.2693 125.465 25.2858 125.182 25.3191 124.982C25.3524 124.781 25.428 124.584 25.5454 124.389C25.6626 124.195 25.8524 124.06 26.1145 123.986C26.377 123.911 26.7257 123.874 27.1612 123.874H29.5382V119H25.7381C23.5392 119 21.96 119.535 21.0001 120.605C20.0404 121.675 19.5606 123.251 19.5606 125.333V128.268H16.7143V133.143H19.5604V147.286H25.2693V133.143H29.0692L29.5714 128.268H25.2693Z" fill="white"/>
<rect x="0.5" y="165.5" width="44" height="44" rx="22" stroke="white"/>
<path d="M35 179.488C34.0971 179.912 33.142 180.194 32.1643 180.325C33.195 179.667 33.9654 178.625 34.3295 177.396C33.3648 178.012 32.3092 178.446 31.2085 178.679C30.534 177.903 29.658 177.363 28.6945 177.129C27.731 176.896 26.7245 176.98 25.806 177.371C24.8876 177.761 24.0996 178.441 23.5445 179.32C22.9895 180.199 22.6932 181.238 22.694 182.301C22.6905 182.707 22.729 183.112 22.8086 183.509C20.8506 183.405 18.9349 182.858 17.1866 181.903C15.4384 180.949 13.8969 179.608 12.6629 177.968C12.0286 179.134 11.8321 180.517 12.1135 181.835C12.395 183.152 13.1331 184.304 14.1771 185.055C13.3979 185.032 12.6351 184.808 11.9534 184.401V184.459C11.9556 185.681 12.3487 186.866 13.0667 187.813C13.7847 188.761 14.7838 189.413 15.8961 189.661C15.4752 189.78 15.0414 189.838 14.6062 189.834C14.2929 189.841 13.9798 189.811 13.6724 189.745C13.991 190.797 14.6045 191.716 15.4284 192.377C16.2523 193.038 17.2462 193.408 18.2734 193.435C16.5328 194.9 14.387 195.696 12.1777 195.695C11.784 195.699 11.3906 195.674 11 195.622C13.2527 197.185 15.8784 198.011 18.5587 198C27.6169 198 32.569 189.924 32.569 182.923C32.569 182.69 32.569 182.464 32.552 182.238C33.5164 181.489 34.3459 180.557 35 179.488Z" fill="white"/>
</svg>
