<svg width="148" height="111" viewBox="0 0 148 111" fill="none" xmlns="http://www.w3.org/2000/svg">
<path d="M73.7834 110.201C105.354 110.201 130.947 108.707 130.947 106.864C130.947 105.021 105.354 103.527 73.7834 103.527C42.2127 103.527 16.6195 105.021 16.6195 106.864C16.6195 108.707 42.2127 110.201 73.7834 110.201Z" fill="#F5F5F5"/>
<path d="M103.045 32.329L100.12 31.1497C100.12 31.1497 96.2609 38.1872 95.1553 38.5439C93.6517 39.0274 90.5384 40.3718 88.6928 40.6077C88.4422 40.9025 88.0323 41.8194 88.0707 42.1526C90.5502 42.981 95.9985 41.8813 97.1661 41.0145C99.8224 39.0481 103.045 32.329 103.045 32.329Z" fill="#E58A7B"/>
<path d="M103.944 30.728C104.49 32.7417 101.535 36.7926 101.535 36.7926L97.6643 34.6227C97.6643 34.6227 98.3896 32.9569 99.274 31.2617C100.692 28.5227 103.322 28.4313 103.944 30.728Z" fill="#4CAF4F"/>
<path opacity="0.2" d="M103.944 30.728C104.49 32.7417 101.535 36.7926 101.535 36.7926L97.6643 34.6227C97.6643 34.6227 98.3896 32.9569 99.274 31.2617C100.692 28.5227 103.322 28.4313 103.944 30.728Z" fill="black"/>
<path opacity="0.2" d="M99.2004 35.4895L100.725 36.3445L100.993 31.6656C100.105 32.3467 99.4804 34.3987 99.2004 35.4895Z" fill="black"/>
<path d="M101.397 29.2126C101.397 29.2126 98.3837 35.917 100.141 48.3999H112.013C112.202 46.5779 111.577 37.6859 113.838 29.1006C112.536 28.8461 111.218 28.6777 109.894 28.5965C108.214 28.4991 106.529 28.4991 104.849 28.5965C103.685 28.7147 102.53 28.9207 101.397 29.2126Z" fill="#4CAF4F"/>
<path opacity="0.2" d="M101.397 29.2126C101.397 29.2126 98.3837 35.917 100.141 48.3999H112.013C112.202 46.5779 111.577 37.6859 113.838 29.1006C112.536 28.8461 111.218 28.6777 109.894 28.5965C108.214 28.4991 106.529 28.4991 104.849 28.5965C103.685 28.7147 102.53 28.9207 101.397 29.2126Z" fill="black"/>
<g style="mix-blend-mode:multiply">
<path d="M98.6431 107.129C98.6254 107.448 103.127 107.704 108.697 107.704C114.266 107.704 118.8 107.448 118.818 107.129C118.836 106.811 114.337 106.557 108.764 106.557C103.192 106.557 98.6637 106.814 98.6431 107.129Z" fill="#E8ECF1"/>
</g>
<path d="M106.568 98.763L104.462 99.5781L106.276 104.264L108.382 103.449L106.568 98.763Z" fill="#E58A7B"/>
<path d="M115.958 104.862H113.738L112.924 99.7233H115.145L115.958 104.862Z" fill="#E58A7B"/>
<path d="M113.585 104.606H116.079C116.122 104.606 116.164 104.621 116.197 104.649C116.23 104.677 116.252 104.716 116.259 104.759L116.58 106.731C116.587 106.781 116.583 106.831 116.569 106.879C116.554 106.927 116.53 106.971 116.497 107.008C116.464 107.046 116.423 107.076 116.377 107.096C116.332 107.117 116.282 107.127 116.232 107.126C115.363 107.112 114.944 107.059 113.847 107.059C113.172 107.059 111.784 107.129 110.846 107.129C109.908 107.129 109.847 106.209 110.233 106.124C111.966 105.75 112.639 105.239 113.216 104.744C113.318 104.655 113.449 104.605 113.585 104.606Z" fill="#263238"/>
<path d="M106.214 103.845L108.573 103.155C108.615 103.143 108.66 103.146 108.7 103.163C108.74 103.18 108.773 103.211 108.794 103.249L109.678 105.018C109.699 105.063 109.709 105.112 109.709 105.161C109.709 105.211 109.698 105.259 109.677 105.304C109.656 105.349 109.625 105.388 109.587 105.42C109.549 105.451 109.505 105.474 109.457 105.487C108.599 105.723 108.024 105.867 106.951 106.18C106.211 106.395 105.457 106.746 104.725 106.979C104.218 107.141 103.027 107.147 102.411 107.147C101.5 107.147 101.297 106.186 101.689 106.142C102.676 106.033 102.809 106.083 103.354 105.808C104.247 105.418 105.056 104.86 105.737 104.163C105.865 104.017 106.03 103.907 106.214 103.845Z" fill="#263238"/>
<path d="M89.0642 40.5959L86.6231 39.5728L85.6177 42.2793C86.6183 42.4318 87.6362 42.4318 88.6367 42.2793L89.0642 40.5959Z" fill="#E58A7B"/>
<path d="M84.807 39.5021L84.7421 41.3005L85.6177 42.2734L86.6231 39.5669L84.807 39.5021Z" fill="#E58A7B"/>
<path d="M106.857 99.1609L104.745 99.9764L105.68 102.399L107.793 101.584L106.857 99.1609Z" fill="#CF6F64"/>
<path d="M115.145 99.7233H112.924L113.346 102.374H115.566L115.145 99.7233Z" fill="#CF6F64"/>
<path opacity="0.2" d="M99.7635 45.0242C99.8077 45.5578 99.8578 46.1032 99.9227 46.6634L108.75 43.7977C110.128 43.3892 111.326 42.5229 112.146 41.3418C112.182 40.5546 112.226 39.7262 112.294 38.8623C112.323 38.4437 112.358 38.0132 112.397 37.5769C112.435 37.1405 112.488 36.657 112.544 36.1912L99.7635 45.0242Z" fill="black"/>
<path d="M102.647 35.3539L102.352 35.3185C102.526 33.8444 103.626 32.6828 104.784 32.7122V33.0071C103.77 32.9864 102.803 34.0331 102.647 35.3539Z" fill="white"/>
<path d="M104.218 38.0751H104.168V37.7803C105.182 37.8186 106.135 36.7602 106.291 35.4423L106.586 35.4777C106.429 36.9194 105.365 38.0751 104.218 38.0751Z" fill="white"/>
<path d="M109.729 22.9152C109.313 24.5397 108.823 27.5144 109.894 28.5965C109.894 28.5965 109.145 30.2445 106.129 30.2445C103.372 30.2445 104.849 28.5965 104.849 28.5965C106.683 28.166 106.715 26.8275 106.474 25.5598L109.729 22.9152Z" fill="#E58A7B"/>
<path d="M108.402 23.9942L106.477 25.5598C106.536 25.8511 106.571 26.147 106.58 26.4442C107.143 27.0044 108.272 25.5863 108.387 24.861C108.446 24.5755 108.451 24.2816 108.402 23.9942Z" fill="#CF6F64"/>
<path d="M103.166 22.8945C103.3 23.1267 103.48 23.3288 103.696 23.4881C103.911 23.6474 104.157 23.7604 104.419 23.8203C105.126 23.9765 105.48 23.325 105.286 22.6705C105.112 22.0808 104.531 21.2877 103.811 21.4233C103.657 21.4551 103.513 21.5233 103.391 21.6222C103.268 21.7212 103.172 21.848 103.108 21.9921C103.045 22.1361 103.017 22.2933 103.027 22.4503C103.037 22.6073 103.085 22.7596 103.166 22.8945Z" fill="#CF6F64"/>
<path d="M104.336 17.6968C103.234 18.2009 102.844 22.582 104.23 23.2306C105.616 23.8793 106.424 16.7386 104.336 17.6968Z" fill="#263238"/>
<path d="M110.065 20.4711C109.799 22.6705 109.77 23.9647 108.591 25.091C108.225 25.4647 107.763 25.7302 107.257 25.8581C106.75 25.986 106.218 25.9714 105.719 25.8158C105.22 25.6603 104.773 25.3698 104.429 24.9766C104.084 24.5833 103.856 24.1026 103.767 23.5874C103.41 21.612 103.903 18.3483 106.108 17.4727C106.571 17.2683 107.081 17.1916 107.584 17.2505C108.087 17.3093 108.565 17.5017 108.969 17.8076C109.372 18.1134 109.687 18.5217 109.88 18.99C110.072 19.4584 110.136 19.9697 110.065 20.4711Z" fill="#E58A7B"/>
<path d="M106.441 18.8348C108.075 18.4191 109.275 18.136 108.844 19.4952C108.275 21.3113 107.591 23.0685 108.508 23.1481C109.068 23.1982 111.545 22.1486 111.229 21.0843C110.955 20.1585 112.114 19.905 112.32 19.4362C113.084 17.738 110.899 17.9621 111.288 16.9302C111.677 15.8983 109.519 14.2355 108.34 15.0639C106.421 16.4024 103.127 16.3818 104.858 14.1795C106.099 12.608 103.885 12.9294 103.885 12.9294C103.885 12.9294 105.224 13.7225 102.971 14.949C100.589 16.258 102.774 19.7753 106.441 18.8348Z" fill="#263238"/>
<path d="M110.931 22.8945C110.609 23.3611 110.125 23.6911 109.572 23.8203C108.844 23.9765 108.564 23.325 108.838 22.6705C109.083 22.0808 109.755 21.2877 110.451 21.4233C111.147 21.559 111.306 22.3167 110.931 22.8945Z" fill="#E58A7B"/>
<path d="M100.141 48.3999C100.141 48.3999 98.1478 66.2369 97.9915 73.0061C97.8323 80.0466 104.746 102.014 104.746 102.014L108.284 100.54C108.284 100.54 104.156 80.4682 104.746 73.5545C105.371 66.0158 107.954 48.4117 107.954 48.4117L100.141 48.3999Z" fill="#4CAF4F"/>
<path opacity="0.2" d="M105.094 53.297C103.505 56.5931 104.575 63.1117 105.436 66.974C105.763 64.2468 106.152 61.2868 106.521 58.5478C106.486 54.3377 106.158 51.0858 105.094 53.297Z" fill="black"/>
<path d="M108.128 99.3724C108.145 99.3724 108.546 100.499 108.546 100.499L104.466 102.215L103.823 101.018L108.128 99.3724Z" fill="#4CAF4F"/>
<path d="M104.354 48.3999C104.354 48.3999 105.878 65.3642 106.886 71.7177C107.995 78.6786 112.341 101.861 112.341 101.861H116.406C116.406 101.861 113.971 79.2417 113.511 72.3487C113.01 64.8719 112.013 48.3999 112.013 48.3999H104.354Z" fill="#4CAF4F"/>
<path d="M116.468 100.802C116.486 100.802 116.604 101.937 116.604 101.937H112.134L111.816 100.634L116.468 100.802Z" fill="#4CAF4F"/>
<path opacity="0.2" d="M114.912 99.4579C114.902 99.4581 114.893 99.4548 114.886 99.4489C114.879 99.4429 114.875 99.4346 114.873 99.4255C114.85 99.2191 112.653 78.7877 112.241 72.5963C111.792 65.8802 110.89 50.9826 110.881 50.8323C110.881 50.8274 110.882 50.8225 110.883 50.8178C110.885 50.8132 110.887 50.8089 110.891 50.8053C110.894 50.8017 110.898 50.7989 110.902 50.7969C110.907 50.7949 110.912 50.7939 110.917 50.7939C110.926 50.7939 110.936 50.7976 110.943 50.8041C110.95 50.8107 110.954 50.8197 110.955 50.8293C110.955 50.9797 111.866 65.8655 112.314 72.5934C112.727 78.7847 114.923 99.2014 114.944 99.4226C114.945 99.4274 114.945 99.4324 114.944 99.4372C114.942 99.442 114.94 99.4465 114.937 99.4504C114.934 99.4543 114.93 99.4575 114.926 99.4598C114.921 99.4621 114.917 99.4635 114.912 99.4638V99.4579Z" fill="black"/>
<path d="M106.692 21.0843C106.692 21.2642 106.58 21.4086 106.462 21.4086C106.344 21.4086 106.258 21.2642 106.27 21.0843C106.282 20.9045 106.382 20.76 106.5 20.76C106.618 20.76 106.704 20.9074 106.692 21.0843Z" fill="#263238"/>
<path d="M104.669 21.0843C104.669 21.2642 104.554 21.4086 104.439 21.4086C104.324 21.4086 104.236 21.2642 104.245 21.0843C104.254 20.9045 104.36 20.76 104.478 20.76C104.596 20.76 104.681 20.9074 104.669 21.0843Z" fill="#263238"/>
<path d="M105.306 21.1757C105.06 21.7249 104.743 22.2393 104.363 22.7058C104.658 23.0007 105.209 22.865 105.209 22.865L105.306 21.1757Z" fill="#DF5753"/>
<path d="M105.359 23.6169C105.352 23.6169 105.346 23.6155 105.339 23.6128C105.333 23.6101 105.327 23.6061 105.323 23.6012C105.318 23.5962 105.314 23.5903 105.312 23.5839C105.31 23.5775 105.309 23.5706 105.309 23.5638C105.31 23.5495 105.316 23.536 105.327 23.5261C105.337 23.5162 105.351 23.5107 105.365 23.5107C105.591 23.5123 105.814 23.4633 106.018 23.3674C106.222 23.2715 106.402 23.1311 106.544 22.9565C106.555 22.9475 106.568 22.9426 106.581 22.9426C106.595 22.9426 106.608 22.9475 106.618 22.9565C106.628 22.9663 106.633 22.9796 106.633 22.9933C106.633 23.0071 106.628 23.0203 106.618 23.0302C106.465 23.2157 106.273 23.3647 106.055 23.4663C105.837 23.5678 105.6 23.6193 105.359 23.6169Z" fill="#263238"/>
<path d="M107.052 20.5418C107.037 20.5491 107.022 20.5529 107.006 20.5529C106.99 20.5529 106.974 20.5491 106.96 20.5418C106.85 20.4705 106.724 20.4262 106.594 20.4123C106.463 20.3985 106.331 20.4156 106.208 20.4622C106.196 20.4682 106.183 20.4717 106.17 20.4726C106.157 20.4735 106.143 20.4716 106.131 20.4672C106.118 20.4628 106.106 20.456 106.096 20.447C106.086 20.438 106.078 20.4272 106.073 20.4151C106.062 20.3888 106.062 20.3593 106.072 20.3329C106.082 20.3065 106.103 20.2852 106.129 20.2735C106.283 20.2106 106.45 20.1858 106.616 20.2012C106.782 20.2165 106.941 20.2717 107.081 20.362C107.092 20.3697 107.102 20.3795 107.109 20.391C107.117 20.4024 107.122 20.4152 107.125 20.4287C107.127 20.4421 107.127 20.4559 107.124 20.4693C107.121 20.4826 107.115 20.4953 107.108 20.5065C107.093 20.5234 107.073 20.5356 107.052 20.5418Z" fill="#263238"/>
<path d="M103.888 19.9522C103.872 19.9484 103.858 19.9402 103.847 19.9286C103.837 19.919 103.829 19.9075 103.824 19.8948C103.819 19.8822 103.816 19.8686 103.816 19.8549C103.816 19.8411 103.819 19.8275 103.824 19.8149C103.829 19.8022 103.837 19.7908 103.847 19.7812C103.96 19.6544 104.101 19.5555 104.258 19.4921C104.416 19.4287 104.586 19.4025 104.755 19.4156C104.768 19.4177 104.781 19.4225 104.793 19.4298C104.805 19.4372 104.815 19.4468 104.822 19.4581C104.83 19.4694 104.835 19.4822 104.838 19.4957C104.841 19.5092 104.84 19.5231 104.837 19.5365C104.831 19.5638 104.815 19.5878 104.792 19.6041C104.769 19.6204 104.741 19.6278 104.714 19.6249C104.58 19.6165 104.446 19.6386 104.321 19.6897C104.197 19.7408 104.086 19.8194 103.997 19.9197C103.984 19.9346 103.966 19.9456 103.947 19.9513C103.928 19.957 103.907 19.9573 103.888 19.9522Z" fill="#263238"/>
<path d="M114.979 32.0017L111.913 31.185C111.913 31.185 108.906 38.5881 107.842 39.0687C106.397 39.7291 102.738 42.0169 101.182 43.099C101.096 43.4675 101.164 44.4434 101.358 44.7116C104.012 44.2281 109.092 42.2734 110.153 41.2799C112.574 39.0127 114.979 32.0017 114.979 32.0017Z" fill="#E58A7B"/>
<path d="M112.839 104.995C112.689 105.007 112.54 104.966 112.417 104.88C112.379 104.845 112.351 104.802 112.335 104.753C112.319 104.705 112.316 104.653 112.326 104.603C112.328 104.571 112.338 104.541 112.356 104.515C112.373 104.489 112.398 104.468 112.426 104.455C112.674 104.328 113.367 104.768 113.446 104.818C113.455 104.823 113.462 104.831 113.466 104.841C113.469 104.85 113.47 104.861 113.467 104.871C113.464 104.881 113.459 104.891 113.452 104.898C113.445 104.906 113.436 104.912 113.426 104.915C113.234 104.962 113.037 104.989 112.839 104.995ZM112.544 104.535C112.522 104.53 112.499 104.53 112.476 104.535C112.465 104.541 112.456 104.549 112.449 104.56C112.443 104.571 112.44 104.584 112.441 104.597C112.433 104.631 112.434 104.667 112.445 104.7C112.455 104.734 112.474 104.764 112.5 104.788C112.615 104.892 112.904 104.903 113.284 104.83C113.058 104.68 112.803 104.58 112.535 104.535H112.544Z" fill="#4CAF4F"/>
<path d="M113.411 104.915C113.403 104.918 113.395 104.918 113.387 104.915C113.166 104.791 112.751 104.305 112.812 104.057C112.822 104.018 112.844 103.983 112.875 103.958C112.907 103.933 112.946 103.919 112.986 103.919C113.026 103.913 113.066 103.917 113.104 103.928C113.143 103.94 113.178 103.96 113.208 103.986C113.452 104.196 113.467 104.839 113.467 104.871C113.468 104.881 113.467 104.891 113.462 104.899C113.457 104.908 113.449 104.914 113.44 104.918C113.431 104.92 113.42 104.919 113.411 104.915ZM113.016 104.016H112.995C112.927 104.016 112.919 104.054 112.916 104.069C112.88 104.213 113.143 104.582 113.361 104.756C113.36 104.507 113.283 104.264 113.14 104.06C113.105 104.03 113.061 104.015 113.016 104.016Z" fill="#4CAF4F"/>
<path d="M105.011 104.626C104.831 104.689 104.635 104.689 104.454 104.626C104.413 104.604 104.378 104.572 104.353 104.533C104.328 104.494 104.313 104.449 104.31 104.402C104.306 104.373 104.31 104.343 104.321 104.316C104.331 104.289 104.349 104.265 104.372 104.246C104.607 104.034 105.572 104.246 105.681 104.287C105.691 104.29 105.7 104.296 105.707 104.305C105.713 104.313 105.716 104.324 105.716 104.334C105.716 104.345 105.714 104.356 105.708 104.366C105.702 104.375 105.694 104.383 105.684 104.387C105.466 104.485 105.242 104.565 105.011 104.626ZM104.531 104.275C104.497 104.282 104.466 104.297 104.439 104.32C104.43 104.327 104.423 104.336 104.419 104.347C104.414 104.358 104.413 104.37 104.416 104.382C104.418 104.412 104.427 104.442 104.444 104.469C104.46 104.495 104.483 104.517 104.51 104.532C104.666 104.614 105.029 104.55 105.498 104.352C105.182 104.272 104.855 104.246 104.531 104.275Z" fill="#4CAF4F"/>
<path d="M105.675 104.387H105.651C105.356 104.334 104.767 103.995 104.749 103.742C104.749 103.683 104.775 103.6 104.917 103.553C104.965 103.536 105.016 103.529 105.066 103.532C105.117 103.535 105.166 103.548 105.212 103.571C105.53 103.727 105.698 104.293 105.707 104.32C105.709 104.329 105.709 104.338 105.706 104.347C105.704 104.355 105.699 104.363 105.692 104.37C105.688 104.377 105.682 104.383 105.675 104.387ZM104.976 103.642H104.946C104.855 103.674 104.855 103.712 104.855 103.724C104.855 103.877 105.283 104.157 105.58 104.252C105.512 104.015 105.367 103.808 105.168 103.662C105.108 103.632 105.04 103.625 104.976 103.642Z" fill="#4CAF4F"/>
<path d="M101.432 42.925L98.3571 44.3402L98.0004 45.2247L99.1355 45.9883C99.1355 45.9883 101.258 45.7583 101.863 44.3933L101.432 42.925Z" fill="#E58A7B"/>
<path d="M101.562 44.7618C101.493 44.1709 101.298 43.6018 100.99 43.0931L101.476 42.7275C101.842 43.3137 102.076 43.9727 102.16 44.6586L101.562 44.7618Z" fill="#263238"/>
<path d="M102.087 43.3437C102.152 43.4459 102.184 43.5657 102.178 43.6867C102.173 43.8078 102.13 43.9242 102.056 44.0201C101.982 44.1161 101.88 44.1869 101.765 44.223C101.649 44.259 101.525 44.2586 101.41 44.2217C101.294 44.1848 101.193 44.1133 101.12 44.0168C101.046 43.9203 101.004 43.8036 101 43.6825C100.995 43.5614 101.028 43.4419 101.094 43.3401C101.16 43.2383 101.255 43.1593 101.367 43.1137C101.493 43.0495 101.64 43.0376 101.774 43.0807C101.909 43.1238 102.021 43.2183 102.087 43.3437Z" fill="#263238"/>
<path d="M96.2786 45.4841L96.6884 45.8969L99.448 44.7176L98.3571 44.3402L96.2786 45.4841Z" fill="#E58A7B"/>
<path opacity="0.2" d="M108.128 99.3724C108.145 99.3724 108.546 100.499 108.546 100.499L104.466 102.215L103.823 101.018L108.128 99.3724Z" fill="black"/>
<path opacity="0.2" d="M116.468 100.802C116.486 100.802 116.604 101.937 116.604 101.937H112.134L111.816 100.634L116.468 100.802Z" fill="black"/>
<path d="M115.778 31.1526C116.589 33.7677 113.42 37.344 113.42 37.344L109.042 35.5573C109.561 34.0458 110.159 32.5627 110.834 31.1143C112.179 28.2162 114.959 28.5139 115.778 31.1526Z" fill="#4CAF4F"/>
<path opacity="0.2" d="M115.778 31.1526C116.589 33.7677 113.42 37.344 113.42 37.344L109.042 35.5573C109.561 34.0458 110.159 32.5627 110.834 31.1143C112.179 28.2162 114.959 28.5139 115.778 31.1526Z" fill="black"/>
<path d="M72.2739 4.95142H70.39V5.25509H72.2739V4.95142Z" fill="#4CAF4F"/>
<path d="M96.6614 16.9704L96.4334 22.0304L96.7367 22.0441L96.9647 16.9841L96.6614 16.9704Z" fill="#4CAF4F"/>
<path d="M96.0752 6.31348H61.2857L58.0485 78.7581H92.838L96.0752 6.31348Z" fill="#4CAF4F"/>
<path opacity="0.56" d="M95.0374 7.31H60.248L57.0108 79.7547H91.8002L95.0374 7.31Z" fill="#FAFAFA"/>
<path opacity="0.07" d="M93.9996 8.30356H59.2101L55.97 80.7482H90.7595L93.9996 8.30356Z" fill="#4CAF4F"/>
<path d="M90.0401 39.9001H60.3452L60.0976 45.4428H89.7925L90.0401 39.9001Z" fill="white"/>
<path d="M76.6757 35.8551H60.5251L60.416 38.3346H76.5666L76.6757 35.8551Z" fill="#4CAF4F"/>
<path d="M89.3709 54.8596H59.676L59.4283 60.4023H89.1232L89.3709 54.8596Z" fill="white"/>
<path opacity="0.47" d="M83.9254 67.8879H63.9568L63.6591 74.5303H83.6276L83.9254 67.8879Z" fill="#4CAF4F"/>
<path d="M82.5899 75.5622H62.6213C62.6126 75.5645 62.6035 75.5645 62.5948 75.5622C62.5918 75.5536 62.5918 75.5443 62.5948 75.5357L62.8896 68.8903C62.8896 68.8858 62.8905 68.8813 62.8923 68.8772C62.8941 68.8731 62.8968 68.8693 62.9001 68.8663C62.9034 68.8632 62.9074 68.8609 62.9116 68.8595C62.9159 68.858 62.9205 68.8575 62.925 68.8579H82.8935C82.8972 68.8561 82.9012 68.8551 82.9053 68.8551C82.9094 68.8551 82.9135 68.8561 82.9171 68.8579C82.9192 68.8615 82.9203 68.8656 82.9203 68.8697C82.9203 68.8738 82.9192 68.8779 82.9171 68.8815L82.6282 75.5416C82.6247 75.5485 82.6191 75.5542 82.6122 75.5579C82.6054 75.5616 82.5976 75.5631 82.5899 75.5622ZM62.6567 75.4915H82.5545L82.8493 68.9169H62.9515L62.6567 75.4915Z" fill="white"/>
<path d="M73.1879 50.8145H59.8558L59.7467 53.297H73.0758L73.1879 50.8145Z" fill="#4CAF4F"/>
<path d="M83.5451 21.9953C83.4689 23.6084 82.8952 25.1584 81.9029 26.4324C81.1683 27.3948 80.223 28.176 79.1396 28.7162C78.0561 29.2564 76.8632 29.5412 75.6526 29.5487C74.6743 29.5562 73.7048 29.3633 72.8038 28.9819C71.9029 28.6005 71.0896 28.0386 70.414 27.331C69.7384 26.6234 69.2148 25.7849 68.8755 24.8672C68.5362 23.9496 68.3884 22.9722 68.4412 21.9953C68.5448 19.9681 69.419 18.057 70.885 16.653C72.351 15.249 74.2979 14.458 76.3277 14.4418C77.3068 14.4327 78.2774 14.6244 79.1794 15.0052C80.0814 15.3859 80.8958 15.9476 81.5722 16.6555C82.2486 17.3634 82.7727 18.2025 83.112 19.121C83.4514 20.0394 83.5987 21.0176 83.5451 21.9953Z" fill="white"/>
<path d="M84.2556 16.0221C84.2364 16.451 84.0839 16.8633 83.8193 17.2014C83.6235 17.457 83.3719 17.6645 83.0838 17.8081C82.7956 17.9517 82.4784 18.0275 82.1565 18.0299C81.8445 18.0318 81.5369 17.9573 81.2604 17.8128C80.9839 17.6684 80.747 17.4585 80.5703 17.2014C80.3364 16.854 80.2206 16.4405 80.2401 16.0221C80.2686 15.4839 80.5013 14.9768 80.8909 14.6043C81.2804 14.2317 81.7973 14.0218 82.3363 14.0173C82.5963 14.0149 82.8541 14.0658 83.0937 14.1668C83.3333 14.2679 83.5496 14.4169 83.7294 14.6047C83.9093 14.7925 84.0487 15.0152 84.1392 15.259C84.2297 15.5027 84.2693 15.7624 84.2556 16.0221Z" fill="#4CAF4F"/>
<path d="M63.5441 42.6714C63.5299 42.909 63.4262 43.1324 63.2539 43.2965C63.0815 43.4607 62.8534 43.5533 62.6154 43.5559C62.5005 43.5573 62.3865 43.5351 62.2805 43.4906C62.1746 43.4462 62.0788 43.3805 61.9992 43.2976C61.9197 43.2147 61.8579 43.1164 61.8179 43.0087C61.7778 42.901 61.7602 42.7862 61.7663 42.6714C61.7791 42.4334 61.8824 42.2092 62.055 42.0448C62.2276 41.8803 62.4566 41.7881 62.695 41.787C62.8098 41.786 62.9236 41.8085 63.0293 41.8531C63.1351 41.8977 63.2307 41.9634 63.3102 42.0462C63.3897 42.129 63.4514 42.2272 63.4917 42.3347C63.5319 42.4422 63.5497 42.5568 63.5441 42.6714Z" fill="#263238"/>
<path d="M67.5184 42.6714C67.5049 42.9093 67.4014 43.133 67.2289 43.2973C67.0564 43.4616 66.8279 43.554 66.5897 43.5559C66.475 43.5569 66.3614 43.5344 66.2557 43.4898C66.1501 43.4451 66.0547 43.3794 65.9754 43.2965C65.8962 43.2137 65.8347 43.1155 65.7948 43.008C65.7549 42.9005 65.7375 42.7859 65.7435 42.6714C65.7563 42.4339 65.8591 42.2101 66.0311 42.0458C66.2032 41.8814 66.4314 41.7889 66.6693 41.787C66.7842 41.7856 66.8981 41.8078 67.0041 41.8522C67.1101 41.8967 67.2058 41.9623 67.2854 42.0452C67.365 42.1281 67.4267 42.2265 67.4668 42.3342C67.5069 42.4419 67.5244 42.5567 67.5184 42.6714Z" fill="#263238"/>
<path d="M71.4956 42.6714C71.4821 42.9093 71.3786 43.133 71.2061 43.2973C71.0336 43.4616 70.8051 43.554 70.5669 43.5559C70.4521 43.5569 70.3383 43.5343 70.2325 43.4898C70.1267 43.4452 70.0312 43.3795 69.9517 43.2967C69.8722 43.2139 69.8104 43.1157 69.7702 43.0082C69.73 42.9007 69.7121 42.7861 69.7178 42.6714C69.7312 42.4336 69.8347 42.2098 70.0072 42.0456C70.1797 41.8813 70.4083 41.7888 70.6465 41.787C70.7614 41.7856 70.8753 41.8078 70.9813 41.8522C71.0873 41.8967 71.183 41.9623 71.2626 42.0452C71.3422 42.1281 71.4039 42.2265 71.444 42.3342C71.4841 42.4419 71.5016 42.5567 71.4956 42.6714Z" fill="#263238"/>
<path d="M62.8748 57.6309C62.8607 57.8685 62.757 58.0919 62.5846 58.256C62.4123 58.4202 62.1841 58.5129 61.9461 58.5154C61.8313 58.5164 61.7176 58.4938 61.6118 58.4493C61.506 58.4047 61.4104 58.339 61.3309 58.2562C61.2514 58.1734 61.1897 58.0752 61.1495 57.9677C61.1093 57.8602 61.0914 57.7456 61.097 57.6309C61.1105 57.3931 61.214 57.1693 61.3865 57.0051C61.559 56.8408 61.7875 56.7483 62.0257 56.7465C62.1405 56.7455 62.2543 56.768 62.3601 56.8126C62.4659 56.8572 62.5614 56.9229 62.6409 57.0057C62.7204 57.0885 62.7822 57.1867 62.8224 57.2942C62.8626 57.4017 62.8805 57.5163 62.8748 57.6309Z" fill="#263238"/>
<path d="M66.8491 57.6309C66.8357 57.8683 66.7326 58.0916 66.5607 58.2558C66.3889 58.42 66.161 58.5128 65.9234 58.5154C65.8084 58.5168 65.6945 58.4946 65.5885 58.4501C65.4825 58.4057 65.3868 58.34 65.3072 58.2571C65.2276 58.1742 65.1659 58.0759 65.1258 57.9682C65.0857 57.8605 65.0682 57.7457 65.0743 57.6309C65.0877 57.3931 65.1912 57.1693 65.3637 57.0051C65.5362 56.8408 65.7648 56.7483 66.003 56.7465C66.1176 56.7455 66.2313 56.768 66.3369 56.8126C66.4425 56.8572 66.5379 56.923 66.6172 57.0058C66.6964 57.0887 66.7579 57.1869 66.7978 57.2944C66.8377 57.4019 66.8551 57.5164 66.8491 57.6309Z" fill="#263238"/>
<path d="M70.8352 57.6309C70.8217 57.8688 70.7182 58.0925 70.5457 58.2568C70.3732 58.4211 70.1446 58.5135 69.9065 58.5154C69.7918 58.5159 69.6782 58.4931 69.5726 58.4484C69.467 58.4037 69.3716 58.338 69.2922 58.2553C69.2128 58.1725 69.151 58.0745 69.1107 57.9672C69.0703 57.8599 69.0522 57.7455 69.0573 57.6309C69.0715 57.3934 69.1752 57.17 69.3476 57.0059C69.5199 56.8417 69.7481 56.749 69.986 56.7465C70.101 56.7451 70.2149 56.7673 70.3209 56.8117C70.4269 56.8562 70.5226 56.9219 70.6022 57.0048C70.6818 57.0876 70.7435 57.186 70.7836 57.2937C70.8237 57.4014 70.8412 57.5162 70.8352 57.6309Z" fill="#263238"/>
<path d="M74.8035 57.6309C74.7894 57.8685 74.6857 58.0919 74.5133 58.256C74.341 58.4202 74.1128 58.5129 73.8748 58.5154C73.7602 58.5159 73.6466 58.4931 73.541 58.4484C73.4354 58.4037 73.34 58.338 73.2606 58.2553C73.1812 58.1725 73.1194 58.0745 73.0791 57.9672C73.0387 57.8599 73.0205 57.7455 73.0257 57.6309C73.0399 57.3934 73.1436 57.17 73.3159 57.0059C73.4883 56.8417 73.7164 56.749 73.9544 56.7465C74.0692 56.7455 74.183 56.768 74.2888 56.8126C74.3946 56.8572 74.4901 56.9229 74.5696 57.0057C74.6491 57.0885 74.7109 57.1867 74.7511 57.2942C74.7913 57.4017 74.8092 57.5163 74.8035 57.6309Z" fill="#263238"/>
<path d="M78.7954 57.6309C78.7813 57.8685 78.6776 58.0919 78.5052 58.256C78.3329 58.4202 78.1047 58.5129 77.8667 58.5154C77.7518 58.5168 77.6379 58.4946 77.5319 58.4501C77.4259 58.4057 77.3302 58.34 77.2506 58.2571C77.171 58.1742 77.1093 58.0759 77.0692 57.9682C77.0291 57.8605 77.0116 57.7457 77.0176 57.6309C77.0311 57.3931 77.1346 57.1693 77.3071 57.0051C77.4796 56.8408 77.7082 56.7483 77.9463 56.7465C78.0611 56.7455 78.1749 56.768 78.2807 56.8126C78.3865 56.8572 78.482 56.9229 78.5615 57.0057C78.641 57.0885 78.7028 57.1867 78.743 57.2942C78.7832 57.4017 78.8011 57.5163 78.7954 57.6309Z" fill="#263238"/>
<path d="M78.1921 21.6019C79.4261 20.3951 79.4916 18.4609 78.3383 17.2816C77.1851 16.1023 75.2498 16.1246 74.0158 17.3313C72.7818 18.538 72.7164 20.4723 73.8696 21.6516C75.0228 22.8309 76.9581 22.8086 78.1921 21.6019Z" fill="#4CAF4F"/>
<path d="M81.9029 26.4324C81.1683 27.3948 80.223 28.176 79.1395 28.7162C78.0561 29.2565 76.8632 29.5412 75.6526 29.5487C74.4786 29.5587 73.3202 29.2796 72.2796 28.7362C71.2389 28.1927 70.348 27.4015 69.6853 26.4324C71.1182 25.0055 73.3854 24.0738 75.8973 24.0738C78.4092 24.0738 80.5968 25.0055 81.9029 26.4324Z" fill="#4CAF4F"/>
<path opacity="0.1" d="M78.1921 21.6019C79.4261 20.3951 79.4916 18.4609 78.3383 17.2816C77.1851 16.1023 75.2498 16.1246 74.0158 17.3313C72.7818 18.538 72.7164 20.4723 73.8696 21.6516C75.0228 22.8309 76.9581 22.8086 78.1921 21.6019Z" fill="white"/>
<path opacity="0.1" d="M81.9029 26.4324C81.1683 27.3948 80.223 28.176 79.1395 28.7162C78.0561 29.2565 76.8632 29.5412 75.6526 29.5487C74.4786 29.5587 73.3202 29.2796 72.2796 28.7362C71.2389 28.1927 70.348 27.4015 69.6853 26.4324C71.1182 25.0055 73.3854 24.0738 75.8973 24.0738C78.4092 24.0738 80.5968 25.0055 81.9029 26.4324Z" fill="white"/>
<path d="M38.5251 46.7784C38.245 47.3916 37.9502 48.0668 37.6937 48.7213C37.4372 49.3758 37.1748 50.0509 36.9478 50.7231C36.4843 52.0479 36.1313 53.4087 35.8923 54.7917L35.8275 55.2251C35.8213 55.2995 35.8283 55.3743 35.8481 55.4462C35.9177 55.6906 36.0273 55.9217 36.1724 56.1302C36.551 56.67 36.9902 57.1646 37.4814 57.6044C37.9993 58.0861 38.5426 58.5398 39.1089 58.9635C39.6749 59.3999 40.2705 59.8244 40.8572 60.2254L40.3059 61.2602C38.9049 60.6498 37.5752 59.8875 36.3405 58.9871C35.6817 58.5067 35.0872 57.9439 34.5715 57.3125C34.2658 56.9366 34.0274 56.5107 33.8669 56.0536C33.7735 55.768 33.7258 55.4695 33.7253 55.1691C33.7253 55.0984 33.7253 54.9952 33.7253 54.945V54.8006L33.7548 54.5058C33.9239 52.9697 34.2468 51.4546 34.7189 49.9831C34.9489 49.2579 35.1936 48.5355 35.4737 47.8309C35.7538 47.1263 36.0427 46.4364 36.3994 45.7199L38.5251 46.7784Z" fill="#E58A7B"/>
<path d="M40.4415 60.0426L42.5259 58.9871L41.9864 61.275C41.9864 61.275 40.5565 61.6759 39.8931 60.9801L40.4415 60.0426Z" fill="#E58A7B"/>
<path d="M44.4334 59.3615L43.8792 61.2543L41.9864 61.275L42.5259 58.9871L44.4334 59.3615Z" fill="#E58A7B"/>
<path d="M47.3758 35.7401C47.4873 36.1487 47.6425 36.544 47.8387 36.9194C47.7814 36.9844 47.7075 37.0327 47.625 37.0592C47.5425 37.0856 47.4544 37.0893 47.3699 37.0697L47.3758 35.7401Z" fill="#DF5753"/>
<path d="M47.3139 35.7578C47.436 35.7578 47.535 35.606 47.535 35.4187C47.535 35.2315 47.436 35.0797 47.3139 35.0797C47.1918 35.0797 47.0928 35.2315 47.0928 35.4187C47.0928 35.606 47.1918 35.7578 47.3139 35.7578Z" fill="#263238"/>
<path d="M47.249 35.0914L47.6972 34.9647C47.6972 34.9647 47.479 35.3126 47.249 35.0914Z" fill="#263238"/>
<path d="M41.6179 37.9041C41.8862 39.275 42.1544 41.7899 41.1933 42.7068C41.1933 42.7068 41.5707 44.0984 44.1209 44.0984C46.9247 44.0984 45.4594 42.7068 45.4594 42.7068C43.9293 42.3412 43.9676 41.2061 44.2359 40.1389L41.6179 37.9041Z" fill="#E58A7B"/>
<path d="M40.8719 34.7789C41.0135 37.0697 41.0253 38.0427 42.181 39.219C43.9234 40.988 46.7066 40.3158 47.252 38.0397C47.7443 35.9759 47.4318 32.5795 45.1882 31.6685C44.6957 31.4656 44.1596 31.3918 43.6306 31.4538C43.1016 31.5159 42.5972 31.7119 42.165 32.0233C41.7329 32.3348 41.3874 32.7512 41.1611 33.2334C40.9348 33.7156 40.8353 34.2476 40.8719 34.7789Z" fill="#E58A7B"/>
<path d="M41.099 32.2021C39.9491 32.6208 38.4161 32.3083 39.0175 35.855C39.6543 39.6111 38.6755 40.8465 38.6755 40.8465C38.6755 40.8465 43.036 41.7752 47.4879 40.7904C47.4879 40.7904 46.1287 38.4141 46.509 36.6629C46.9955 34.4517 46.6122 33.635 46.6122 33.635C46.6122 33.635 42.7146 31.6125 41.099 32.2021Z" fill="#263238"/>
<path d="M45.9636 35.973C45.9648 36.4086 46.0895 36.8349 46.3233 37.2024C46.6358 37.68 47.0043 37.4972 47.0957 36.9901C47.1783 36.545 47.1164 35.7578 46.7184 35.4511C46.3203 35.1445 45.9695 35.4452 45.9636 35.973Z" fill="#E58A7B"/>
<path d="M40.0995 32.5884C39.7693 31.6597 41.3437 30.2298 44.6752 30.8194C48.0067 31.4091 48.1512 34.1834 48.1512 34.1834L47.479 33.3815L47.5085 34.2247L44.0856 34.8821L40.0995 32.5884Z" fill="#263238"/>
<path d="M40.3825 42.8631C40.3629 42.7285 40.3966 42.5915 40.4764 42.4813C40.5563 42.3712 40.676 42.2966 40.81 42.2734C41.8478 42.1024 44.2064 41.7545 45.3916 41.9196C46.2761 42.0435 46.5061 42.5565 46.5444 42.9781C46.5504 43.0519 46.5405 43.1261 46.5155 43.1958C46.4904 43.2655 46.4507 43.329 46.399 43.3821C46.3473 43.4352 46.2849 43.4766 46.2159 43.5035C46.1469 43.5304 46.0729 43.5423 45.999 43.5382L40.8749 43.3083C40.7541 43.3022 40.6391 43.2545 40.5494 43.1734C40.4597 43.0923 40.4007 42.9827 40.3825 42.8631Z" fill="#4CAF4F"/>
<path opacity="0.6" d="M40.3825 42.8631C40.3629 42.7285 40.3966 42.5915 40.4764 42.4813C40.5563 42.3712 40.676 42.2966 40.81 42.2734C41.8478 42.1024 44.2064 41.7545 45.3916 41.9196C46.2761 42.0435 46.5061 42.5565 46.5444 42.9781C46.5504 43.0519 46.5405 43.1261 46.5155 43.1958C46.4904 43.2655 46.4507 43.329 46.399 43.3821C46.3473 43.4352 46.2849 43.4766 46.2159 43.5035C46.1469 43.5304 46.0729 43.5423 45.999 43.5382L40.8749 43.3083C40.7541 43.3022 40.6391 43.2545 40.5494 43.1734C40.4597 43.0923 40.4007 42.9827 40.3825 42.8631Z" fill="black"/>
<path d="M43.3455 94.3692L45.2472 95.69L48.4283 91.3767L46.5267 90.0588L43.3455 94.3692Z" fill="#E58A7B"/>
<path d="M38.9113 94.2837L40.9191 95.4276L43.7347 90.8666L41.7269 89.7227L38.9113 94.2837Z" fill="#E58A7B"/>
<path d="M48.4254 91.3767L46.7862 93.5997L44.8845 92.2818L46.5238 90.0588L48.4254 91.3767Z" fill="#CF6F64"/>
<path d="M41.724 89.7227L43.7347 90.8696L42.2842 93.2194L40.2735 92.0725L41.724 89.7227Z" fill="#CF6F64"/>
<path d="M44.9494 57.2624C44.9494 57.2624 52.3731 66.6172 50.9786 75.5652C49.8553 82.7914 43.3396 92.5767 43.3396 92.5767L40.2764 91.0554C42.4356 86.7289 44.2781 82.2515 45.7896 77.6585C46.2558 76.2325 46.3918 74.7192 46.1875 73.233C45.9832 71.7468 45.4439 70.3263 44.6103 69.079C40.8484 63.5864 34.8221 66.856 38.876 57.2624H44.9494Z" fill="#4CAF4F"/>
<path opacity="0.6" d="M44.9494 57.2624C44.9494 57.2624 52.3731 66.6172 50.9786 75.5652C49.8553 82.7914 43.3396 92.5767 43.3396 92.5767L40.2764 91.0554C42.4356 86.7289 44.2781 82.2515 45.7896 77.6585C46.2558 76.2325 46.3918 74.7192 46.1875 73.233C45.9832 71.7468 45.4439 70.3263 44.6103 69.079C40.8484 63.5864 34.8221 66.856 38.876 57.2624H44.9494Z" fill="black"/>
<path opacity="0.4" d="M48.5905 63.2709L47.5114 62.1978C47.5114 62.2833 49.6018 75.1878 50.1885 78.8142C50.5347 77.7548 50.7998 76.6706 50.9815 75.5711C51.6714 71.1811 50.2297 66.6968 48.5905 63.2709Z" fill="black"/>
<path d="M48.2632 57.2624C48.2632 57.2624 57.2024 69.0201 57.4559 76.0694C57.6652 81.9659 47.7267 93.3904 47.7267 93.3904L44.8374 91.5212C44.8374 91.5212 50.6543 83.4076 52.1196 76.7799C51.5535 70.2112 39.5836 57.2624 39.5836 57.2624H48.2632Z" fill="#4CAF4F"/>
<path opacity="0.6" d="M48.2632 57.2624C48.2632 57.2624 57.2024 69.0201 57.4559 76.0694C57.6652 81.9659 47.7267 93.3904 47.7267 93.3904L44.8374 91.5212C44.8374 91.5212 50.6543 83.4076 52.1196 76.7799C51.5535 70.2112 39.5836 57.2624 39.5836 57.2624H48.2632Z" fill="black"/>
<path d="M37.2043 43.2316C36.2491 43.4586 35.3322 46.9317 35.3322 46.9317L39.0676 49.4259C39.0676 49.4259 40.3118 46.6781 39.8754 45.4752C39.4244 44.2222 38.4043 42.9456 37.2043 43.2316Z" fill="#4CAF4F"/>
<path opacity="0.2" d="M37.9355 45.4693L37.676 48.4972L39.0647 49.4288C39.4481 48.5656 39.732 47.6616 39.9108 46.7341L37.9355 45.4693Z" fill="black"/>
<path d="M49.3688 43.2994C49.3688 43.2994 50.4715 43.6856 48.2632 57.2594H38.8701C39.0293 53.4267 39.0322 51.0681 37.2043 43.2316C38.5195 42.9606 39.8527 42.7852 41.1933 42.7068C42.6135 42.605 44.0392 42.605 45.4594 42.7068C47.2932 42.8749 49.3688 43.2994 49.3688 43.2994Z" fill="#4CAF4F"/>
<path d="M50.324 45.4693C50.5363 46.059 50.7604 46.6928 50.9963 47.3031C51.2321 47.9134 51.4562 48.5414 51.695 49.1605L52.4173 51.012L52.6001 51.4749L52.6945 51.7049L52.7387 51.8199C52.7387 51.8405 52.7387 51.8405 52.7387 51.8376C52.6848 51.7616 52.6142 51.6991 52.5323 51.6548C52.4157 51.5861 52.2842 51.5467 52.149 51.5398C52.0367 51.5363 51.925 51.5574 51.8218 51.6017C51.6861 51.6636 51.6861 51.6901 51.6891 51.6872C51.7136 51.6675 51.7354 51.6447 51.754 51.6194C51.9172 51.4051 52.0584 51.175 52.1756 50.9324C52.3141 50.6612 52.4468 50.3723 52.5795 50.0804C52.8389 49.4907 53.0777 48.8805 53.3165 48.2643C53.5553 47.6481 53.7824 47.026 54.0035 46.398L54.6757 44.517L55.8108 44.8119C55.5867 46.1563 55.2978 47.4653 54.9499 48.7979C54.7818 49.4613 54.5843 50.1187 54.3602 50.7821C54.2482 51.1152 54.1244 51.4454 53.9828 51.7845C53.8353 52.1525 53.6537 52.5058 53.4404 52.84C53.3619 52.9524 53.2752 53.0589 53.1809 53.1584C53.0304 53.321 52.8476 53.4505 52.6443 53.5387C52.4639 53.6162 52.2685 53.6524 52.0724 53.6448C51.8526 53.6367 51.6386 53.5727 51.4503 53.4591C51.2282 53.3205 51.0438 53.1291 50.9137 52.9019C50.8695 52.8252 50.8312 52.7486 50.8046 52.6926L50.7486 52.5805L50.6366 52.3506L50.4125 51.8936C50.1177 51.2803 49.8228 50.6612 49.5663 50.0391C49.3099 49.417 49.0386 48.7861 48.7851 48.1522C48.5315 47.5184 48.3045 46.8845 48.0893 46.2005L50.324 45.4693Z" fill="#E58A7B"/>
<path d="M49.3688 43.2994C50.498 43.5677 51.7687 46.9051 51.7687 46.9051L48.4106 49.762C48.4106 49.762 46.2378 46.1238 46.6771 44.9239C47.134 43.6738 47.8947 42.9486 49.3688 43.2994Z" fill="#4CAF4F"/>
<path d="M55.2093 43.4616L56.3886 42.4768L57.2083 43.7534L56.6039 44.8178C56.6039 44.8178 55.6427 45.7022 54.7936 45.2511C54.6589 44.9482 54.6265 44.6096 54.7016 44.2867C54.7766 43.9637 54.9549 43.6741 55.2093 43.4616Z" fill="#E58A7B"/>
<path d="M58.5173 42.4798L58.4288 42.8011L56.5626 43.1137L56.3798 42.4768L58.5173 42.4798Z" fill="#E58A7B"/>
<path d="M47.9566 93.5407L44.5897 91.3649L45.1941 90.3153L48.9767 92.6415L47.9566 93.5407Z" fill="#4CAF4F"/>
<path d="M42.237 95.2743C41.9416 95.2382 41.6577 95.1376 41.4056 94.9795C41.3952 94.9759 41.3862 94.9691 41.3798 94.9601C41.3734 94.9511 41.37 94.9404 41.37 94.9294C41.37 94.9183 41.3734 94.9076 41.3798 94.8986C41.3862 94.8896 41.3952 94.8829 41.4056 94.8792C41.497 94.8498 42.2901 94.605 42.52 94.7937C42.5459 94.8152 42.5655 94.8432 42.5769 94.8748C42.5883 94.9065 42.5911 94.9405 42.5849 94.9736C42.5808 95.0267 42.5632 95.0778 42.5338 95.1222C42.5044 95.1666 42.4641 95.2027 42.4168 95.2271C42.3616 95.2573 42.2999 95.2735 42.237 95.2743ZM41.5736 94.95C41.9422 95.1387 42.237 95.2065 42.3785 95.1357C42.4093 95.1187 42.4353 95.094 42.4538 95.064C42.4724 95.0341 42.483 94.9999 42.4847 94.9647C42.4847 94.9176 42.4847 94.8969 42.4581 94.8851C42.3343 94.7849 41.892 94.8615 41.5677 94.95H41.5736Z" fill="#263238"/>
<path d="M41.4262 95.0001C41.4107 94.9999 41.3958 94.9935 41.3849 94.9824C41.3805 94.9743 41.3782 94.9652 41.3782 94.9559C41.3782 94.9466 41.3805 94.9375 41.3849 94.9294C41.3849 94.9028 41.5766 94.2631 41.8773 94.1186C41.9157 94.1011 41.9574 94.092 41.9996 94.092C42.0419 94.092 42.0836 94.1011 42.122 94.1186C42.1634 94.1317 42.1992 94.1582 42.2238 94.194C42.2484 94.2298 42.2603 94.2728 42.2576 94.3161C42.237 94.5815 41.6974 94.9471 41.4498 95.009L41.4262 95.0001ZM41.9982 94.1952C41.9695 94.1961 41.9413 94.2032 41.9156 94.2159C41.7328 94.3043 41.5825 94.6493 41.5088 94.8586C41.7682 94.7495 42.1249 94.4606 42.1367 94.2984C42.1367 94.2719 42.1367 94.2395 42.0689 94.21C42.0469 94.1981 42.0229 94.1901 41.9982 94.1864V94.1952Z" fill="#263238"/>
<path d="M46.4442 96.548C46.111 96.548 45.6481 96.1205 45.3946 95.8581C45.3881 95.8491 45.3846 95.8382 45.3846 95.8271C45.3846 95.816 45.3881 95.8052 45.3946 95.7962C45.4004 95.7867 45.4087 95.7789 45.4185 95.7737C45.4284 95.7685 45.4395 95.7661 45.4506 95.7667C45.5685 95.7667 46.5916 95.92 46.736 96.2089C46.7513 96.2348 46.7594 96.2643 46.7594 96.2944C46.7594 96.3245 46.7513 96.354 46.736 96.3799C46.7144 96.4249 46.6816 96.4637 46.6409 96.4925C46.6002 96.5214 46.5528 96.5395 46.5031 96.545L46.4442 96.548ZM45.5892 95.8994C45.9606 96.259 46.2879 96.4595 46.4736 96.4359C46.5062 96.4317 46.5372 96.4195 46.5639 96.4005C46.5906 96.3815 46.6123 96.3562 46.627 96.3269C46.6336 96.3168 46.6371 96.305 46.6371 96.293C46.6371 96.2809 46.6336 96.2691 46.627 96.259C46.5503 96.0998 46.0049 95.9642 45.5892 95.8994Z" fill="#263238"/>
<path d="M45.6216 95.8846C45.5554 95.8865 45.4892 95.8815 45.4241 95.8698C45.415 95.8685 45.4064 95.8648 45.3991 95.8591C45.3919 95.8534 45.3863 95.8459 45.3828 95.8374C45.3784 95.8287 45.3761 95.8191 45.3761 95.8094C45.3761 95.7997 45.3784 95.7901 45.3828 95.7814C45.4005 95.7608 45.7985 95.2802 46.1759 95.2478C46.2827 95.2394 46.3885 95.2733 46.4707 95.3421C46.5857 95.4423 46.5798 95.5308 46.5503 95.5868C46.4766 95.7873 45.9666 95.8846 45.6216 95.8846ZM45.545 95.7755C45.8752 95.7932 46.4029 95.6841 46.4707 95.5396C46.4707 95.5396 46.4943 95.4925 46.4176 95.4276C46.3871 95.4011 46.3515 95.3811 46.313 95.3689C46.2744 95.3568 46.2338 95.3526 46.1936 95.3568C45.9394 95.4278 45.713 95.5749 45.545 95.7784V95.7755Z" fill="#263238"/>
<path d="M41.5058 94.6817L39.0057 93.9741C38.9626 93.9611 38.9162 93.9644 38.8754 93.9834C38.8346 94.0025 38.8023 94.0359 38.7846 94.0773L37.9414 95.973C37.9216 96.0216 37.9123 96.0738 37.9141 96.1262C37.9159 96.1786 37.9288 96.23 37.9519 96.2771C37.975 96.3242 38.0078 96.3658 38.0482 96.3993C38.0886 96.4327 38.1356 96.4573 38.1861 96.4713C39.0706 96.7013 39.4951 96.7661 40.5948 97.0816C41.2729 97.2703 42.2399 97.6211 43.1745 97.8865C44.1091 98.1518 44.4217 97.2408 44.059 97.0462C42.4198 96.1794 42.2901 95.5721 41.8419 94.9235C41.7617 94.806 41.6427 94.7205 41.5058 94.6817Z" fill="#4CAF4F"/>
<path d="M45.4624 95.5131L43.3278 94.039C43.2916 94.0126 43.247 94.0005 43.2025 94.0048C43.1579 94.0091 43.1165 94.0297 43.0861 94.0626L41.6709 95.5839C41.6364 95.6232 41.6107 95.6694 41.5955 95.7194C41.5802 95.7695 41.5758 95.8222 41.5825 95.874C41.5892 95.9259 41.6068 95.9758 41.6343 96.0203C41.6617 96.0648 41.6983 96.103 41.7417 96.1322C42.4935 96.6364 42.8827 96.8398 43.8231 97.4914C44.4128 97.8924 45.5538 98.7827 46.3498 99.337C47.1458 99.8913 47.7384 99.1306 47.4554 98.8299C46.1877 97.4766 45.9105 96.6276 45.7012 95.8581C45.6649 95.7185 45.5802 95.5963 45.4624 95.5131Z" fill="#4CAF4F"/>
<path d="M43.7318 92.7712L39.8843 90.8578L40.2823 89.8141L44.3922 91.8307L43.7318 92.7712Z" fill="#4CAF4F"/>
<path d="M38.7286 56.7081L38.4042 57.5572C38.3718 57.6221 38.4485 57.6899 38.5576 57.6899H48.3104C48.3959 57.6899 48.4667 57.6486 48.4726 57.5955L48.5551 56.7523C48.5551 56.6963 48.4873 56.6462 48.3959 56.6462H38.8819C38.8532 56.6435 38.8243 56.6477 38.7977 56.6585C38.771 56.6693 38.7473 56.6863 38.7286 56.7081Z" fill="#4CAF4F"/>
<path opacity="0.4" d="M38.7286 56.7081L38.4042 57.5572C38.3718 57.6221 38.4485 57.6899 38.5576 57.6899H48.3104C48.3959 57.6899 48.4667 57.6486 48.4726 57.5955L48.5551 56.7523C48.5551 56.6963 48.4873 56.6462 48.3959 56.6462H38.8819C38.8532 56.6435 38.8243 56.6477 38.7977 56.6585C38.771 56.6693 38.7473 56.6863 38.7286 56.7081Z" fill="white"/>
<path d="M40.2646 57.7724H40.0081C39.958 57.7724 39.9197 57.7459 39.9226 57.7134L40.0435 56.6196C40.0435 56.5902 40.0907 56.5636 40.1408 56.5636H40.3973C40.4474 56.5636 40.4857 56.5902 40.4828 56.6196L40.3619 57.7134C40.359 57.7459 40.3147 57.7724 40.2646 57.7724Z" fill="#4CAF4F"/>
<path d="M46.2791 57.7724H46.0255C45.9754 57.7724 45.9371 57.7459 45.94 57.7134L46.0579 56.6196C46.0579 56.5902 46.1081 56.5636 46.1582 56.5636H46.4117C46.4619 56.5636 46.5031 56.5902 46.4972 56.6196L46.3793 57.7134C46.3646 57.7459 46.3321 57.7724 46.2791 57.7724Z" fill="#4CAF4F"/>
<g style="mix-blend-mode:multiply">
<path d="M40.0405 107.701C44.4027 107.701 47.9389 107.445 47.9389 107.129C47.9389 106.813 44.4027 106.557 40.0405 106.557C35.6784 106.557 32.1421 106.813 32.1421 107.129C32.1421 107.445 35.6784 107.701 40.0405 107.701Z" fill="#F5F5F5"/>
</g>
<path d="M44.8521 106.321C43.4546 105.915 41.9038 105.393 40.9663 104.847C40.9398 104.83 40.9103 104.821 40.8837 104.806V98.4791H43.7111C43.9258 98.4664 44.1274 98.3721 44.2749 98.2157C44.4224 98.0592 44.5045 97.8523 44.5045 97.6373C44.5045 97.4223 44.4224 97.2154 44.2749 97.059C44.1274 96.9025 43.9258 96.8083 43.7111 96.7956H40.8985V67.9557H39.2003V96.7956H36.3906C36.2759 96.7888 36.161 96.8055 36.0529 96.8448C35.9449 96.884 35.846 96.9449 35.7624 97.0237C35.6788 97.1026 35.6121 97.1977 35.5666 97.3032C35.521 97.4087 35.4976 97.5224 35.4976 97.6373C35.4976 97.7523 35.521 97.866 35.5666 97.9715C35.6121 98.077 35.6788 98.1721 35.7624 98.2509C35.846 98.3298 35.9449 98.3907 36.0529 98.4299C36.161 98.4691 36.2759 98.4859 36.3906 98.4791H39.2003V104.797C39.1737 104.797 39.1472 104.821 39.1207 104.838C38.1684 105.393 36.6294 105.915 35.2319 106.313C35.1375 106.341 35.0565 106.403 35.0034 106.486C34.9504 106.569 34.9289 106.668 34.9427 106.766C34.9566 106.863 35.005 106.953 35.0792 107.018C35.1533 107.083 35.2483 107.119 35.3469 107.12H44.7371C44.8314 107.114 44.9205 107.075 44.9898 107.011C45.059 106.947 45.1041 106.861 45.1176 106.767C45.1311 106.674 45.112 106.579 45.0637 106.497C45.0154 106.416 44.9407 106.354 44.8521 106.321Z" fill="#E0E0E0"/>
<path d="M45.2855 65.0193H34.8015C33.958 65.0193 33.2743 65.703 33.2743 66.5465V69.6628C33.2743 70.5062 33.958 71.19 34.8015 71.19H45.2855C46.1289 71.19 46.8127 70.5062 46.8127 69.6628V66.5465C46.8127 65.703 46.1289 65.0193 45.2855 65.0193Z" fill="#4CAF4F"/>
<path d="M34.7042 71.1929V71.7295C34.7042 72.1717 35.1847 72.5314 35.7744 72.5314H44.3243C44.914 72.5314 45.3946 72.1717 45.3946 71.7295V71.1929H34.7042Z" fill="#4CAF4F"/>
<path opacity="0.3" d="M34.7042 71.1929V71.7295C34.7042 72.1717 35.1847 72.5314 35.7744 72.5314H44.3243C44.914 72.5314 45.3946 72.1717 45.3946 71.7295V71.1929H34.7042Z" fill="white"/>
</svg>
